<svg xmlns="http://www.w3.org/2000/svg" xmlns:xlink="http://www.w3.org/1999/xlink" width="898px" height="800px" viewBox="0 0 897.9020979020861 800">
    <g id="72c04469-efa5-4208-be68-914bf2d7116a">
<rect style="stroke: rgb(193,193,193); stroke-opacity: 1.00; stroke-width: 0; stroke-dasharray: none; stroke-linecap: butt; stroke-dashoffset: 0; stroke-linejoin: miter; stroke-miterlimit: 4; fill: none; fill-rule: nonzero; opacity: 1;" x="-448.95104895104305" y="-400" rx="0" ry="0" width="897.9020979020861" height="800" transform="matrix(1 0 0 1 448.951049 400)"></rect>
</g>
<g id="ab97ff09-fc33-459b-a698-2b94613ffed2">
<g style="">
		<g id="ab97ff09-fc33-459b-a698-2b94613ffed2-child-0">
<path style="stroke: rgb(193,193,193); stroke-opacity: 1.00; stroke-width: 0; stroke-dasharray: none; stroke-linecap: butt; stroke-dashoffset: 0; stroke-linejoin: miter; stroke-miterlimit: 4; fill: rgb(0,0,0); fill-opacity: 1.00; fill-rule: nonzero; opacity: 1;" transform="matrix(0.796689 0 0 0.799787 448.950866 399.999858) matrix(1 0 0 1 0 0)  translate(-477.499283, -308.524625)" d="M 44.47 616.00 C 21.57 614.02 14.24 608.02 9.07 587.00 C 7.92 582.33 6.53 577.71 5.97 576.74 C 5.42 575.77 4.54 566.55 4.01 556.24 C 3.48 545.93 2.53 527.83 1.90 516.00 C 0.80 495.35 1.02 466.35 2.84 391.40 C 3.53 363.16 3.89 361.00 7.99 361.00 C 9.47 361.00 9.85 359.65 10.44 352.25 C 10.82 347.44 11.72 339.00 12.44 333.50 L 13.74 323.50 L 10.81 321.00 L 7.89 318.50 L 8.94 305.66 C 11.01 280.41 15.35 258.12 19.95 249.10 C 21.05 246.94 23.96 243.53 26.42 241.51 C 29.74 238.79 31.33 236.52 32.58 232.67 C 35.94 222.42 38.65 218.35 45.24 213.66 C 53.80 207.56 66.08 200.02 77.20 194.03 C 85.19 189.73 86.06 189.03 83.38 189.01 C 78.51 188.99 61.40 184.35 56.93 181.84 C 52.30 179.24 49.79 175.60 46.98 167.44 C 42.44 154.25 46.58 143.85 58.50 138.49 C 70.07 133.29 91.89 128.76 106.00 128.62 C 117.63 128.50 121.86 130.21 125.53 136.47 C 127.85 140.42 128.00 141.57 128.00 155.18 C 128.00 167.14 128.36 170.72 130.02 175.57 C 131.14 178.80 132.37 181.75 132.77 182.12 C 133.17 182.50 136.61 182.28 140.41 181.64 L 147.32 180.48 L 154.70 164.49 C 169.96 131.43 184.32 103.59 197.17 82.16 C 199.91 77.58 201.95 73.61 201.69 73.35 C 201.43 73.09 197.38 73.19 192.69 73.57 L 184.17 74.26 L 182.07 79.88 C 178.79 88.66 175.12 92.00 168.75 92.00 C 165.53 92.00 164.79 91.58 163.89 89.25 C 162.61 85.91 163.33 77.05 166.58 56.19 C 169.13 39.77 171.39 33.10 175.23 30.59 C 178.82 28.23 186.84 26.97 189.76 28.30 C 192.06 29.35 192.17 29.79 191.84 36.80 L 191.50 44.19 L 207.06 44.05 L 222.62 43.92 L 229.06 37.78 C 236.54 30.66 246.49 23.96 254.00 21.00 C 266.84 15.94 314.15 8.05 358.50 3.57 C 392.50 0.13 409.24 -0.62 415.92 0.98 C 423.56 2.81 533.98 2.82 539.53 0.99 C 550.02 -2.47 642.67 7.12 679.50 15.48 C 682.80 16.23 688.13 17.37 691.35 18.01 C 701.29 20.01 715.78 28.01 724.78 36.47 L 732.68 43.91 L 748.09 44.05 L 763.50 44.19 L 763.14 36.61 C 762.79 29.18 762.83 29.01 765.46 28.02 C 771.98 25.53 781.07 29.64 784.07 36.42 C 788.02 45.36 793.17 84.14 791.09 89.38 C 790.02 92.08 789.68 92.22 785.40 91.74 C 779.51 91.08 775.62 87.40 772.90 79.93 L 770.84 74.29 L 762.22 73.68 C 757.48 73.34 753.44 73.23 753.25 73.42 C 753.06 73.61 755.31 77.76 758.26 82.63 C 770.37 102.65 789.05 139.40 804.71 174.02 L 807.66 180.54 L 814.52 181.71 C 818.29 182.36 821.71 182.68 822.12 182.42 C 822.53 182.17 823.80 179.48 824.94 176.44 C 826.67 171.80 827.00 168.63 827.00 156.43 C 827.00 140.25 827.80 137.03 832.91 132.73 C 839.54 127.15 849.21 126.86 872.68 131.55 C 898.96 136.80 908.22 142.64 909.67 154.88 C 910.45 161.44 907.83 171.56 903.98 176.87 C 900.28 181.98 894.62 184.56 881.01 187.37 L 869.75 189.69 L 879.63 194.93 C 892.09 201.55 914.19 216.16 916.85 219.54 C 917.96 220.95 920.03 225.57 921.45 229.80 C 923.69 236.50 924.73 238.12 929.43 242.24 C 933.85 246.12 935.20 248.10 936.91 253.24 C 941.28 266.39 945.17 290.12 946.34 310.77 C 946.82 319.20 946.38 320.57 942.49 322.75 C 941.27 323.43 941.27 324.84 942.49 332.94 C 943.27 338.12 944.21 346.55 944.59 351.68 C 945.17 359.61 945.53 361.00 947.01 361.00 C 951.12 361.00 951.47 363.14 952.16 391.90 C 953.99 468.35 954.19 494.51 953.10 516.50 C 950.83 562.58 949.99 575.31 949.14 576.39 C 948.66 577.00 947.57 580.65 946.72 584.50 C 942.84 602.00 936.99 610.51 926.83 613.44 C 918.24 615.91 900.56 616.94 868.00 616.87 C 835.87 616.79 824.10 616.01 816.90 613.47 C 809.41 610.82 804.60 604.77 801.38 593.91 C 800.02 589.32 799.83 589.15 796.73 589.56 C 794.95 589.80 783.60 590.66 771.50 591.48 C 759.40 592.29 742.08 593.51 733.00 594.19 C 709.34 595.95 250.57 595.93 224.00 594.17 C 198.55 592.48 164.38 590.08 159.26 589.62 C 155.03 589.25 155.00 589.27 153.90 593.36 C 152.31 599.27 148.63 606.08 145.33 609.21 C 141.60 612.75 135.76 614.74 125.68 615.91 C 116.43 616.99 56.73 617.05 44.47 616.00 Z M 85.53 612.25 C 84.54 609.73 82.31 597.56 81.49 590.18 C 81.10 586.70 80.27 583.70 79.64 583.51 C 79.01 583.32 75.40 582.92 71.60 582.61 L 64.71 582.05 L 65.37 590.70 C 65.99 598.73 68.30 611.06 69.57 613.12 C 69.87 613.60 73.74 614.00 78.17 614.00 C 85.43 614.00 86.15 613.83 85.53 612.25 Z M 109.22 613.45 C 109.52 613.14 109.19 610.96 108.48 608.59 C 107.77 606.23 106.67 600.08 106.05 594.93 C 105.42 589.79 104.82 585.51 104.70 585.43 C 104.59 585.34 100.56 585.01 95.75 584.69 L 86.99 584.10 L 87.57 588.30 C 88.73 596.59 91.07 610.53 91.60 612.25 C 92.05 613.73 93.40 614.00 100.40 614.00 C 104.95 614.00 108.92 613.75 109.22 613.45 Z M 863.91 610.25 C 864.74 607.10 868.00 586.63 868.00 584.59 C 868.00 584.24 864.96 584.21 861.25 584.53 C 849.75 585.54 850.29 585.19 849.50 592.24 C 849.12 595.68 848.17 601.57 847.40 605.32 C 846.63 609.06 846.00 612.55 846.00 613.07 C 846.00 613.58 849.81 614.00 854.46 614.00 L 862.92 614.00 L 863.91 610.25 Z M 886.04 611.41 C 887.39 607.84 889.99 591.41 890.00 586.37 L 890.00 582.23 L 883.25 582.69 C 879.54 582.95 875.99 583.31 875.38 583.50 C 874.76 583.69 873.93 586.91 873.54 590.67 C 872.80 597.73 870.64 609.18 869.46 612.25 C 868.85 613.83 869.58 614.00 876.92 614.00 C 884.75 614.00 885.09 613.90 886.04 611.41 Z M 43.86 604.25 C 42.84 599.44 41.71 592.20 41.35 588.17 C 40.58 579.63 40.60 579.64 29.00 578.57 C 23.44 578.06 20.62 578.25 18.09 579.32 L 14.69 580.75 L 17.09 582.30 C 18.42 583.15 23.21 584.63 27.75 585.59 C 36.61 587.47 39.14 589.20 31.20 587.94 C 26.62 587.22 19.34 585.45 16.60 584.40 C 15.69 584.05 15.46 584.79 15.79 587.05 C 16.38 591.04 20.18 593.43 28.43 594.99 C 31.85 595.63 35.28 596.60 36.07 597.14 C 38.19 598.59 29.63 597.17 23.01 594.97 C 19.99 593.97 17.36 593.31 17.16 593.51 C 16.96 593.71 17.20 595.14 17.70 596.69 C 18.85 600.24 23.83 602.78 32.46 604.21 C 36.06 604.81 39.00 605.71 39.00 606.22 C 39.00 606.72 38.21 606.91 37.25 606.64 C 36.29 606.37 33.47 605.84 31.00 605.46 C 28.52 605.08 25.04 604.17 23.25 603.44 C 20.56 602.33 20.00 602.33 20.00 603.43 C 20.00 605.81 22.73 607.11 31.19 608.77 C 35.76 609.66 40.09 610.98 40.82 611.70 C 41.55 612.41 42.95 613.00 43.93 613.00 C 45.64 613.00 45.64 612.62 43.86 604.25 Z M 63.52 611.25 C 62.15 607.78 59.99 596.35 59.35 589.16 C 58.99 585.12 58.20 581.67 57.60 581.49 C 56.99 581.31 53.19 580.90 49.15 580.57 L 41.81 579.97 L 42.47 585.23 C 43.50 593.53 46.19 608.28 47.11 610.75 C 47.89 612.83 48.56 613.00 56.08 613.00 C 63.42 613.00 64.15 612.83 63.52 611.25 Z M 65.60 603.86 C 64.77 599.26 63.80 592.46 63.43 588.75 C 62.96 583.97 62.36 582.00 61.37 582.00 C 60.27 582.00 60.11 583.20 60.61 587.75 C 61.98 600.39 65.25 614.08 66.58 612.75 C 66.87 612.46 66.43 608.46 65.60 603.86 Z M 90.00 612.56 C 90.00 612.32 89.35 609.28 88.55 605.81 C 87.75 602.34 86.79 596.01 86.41 591.75 C 85.85 585.43 85.41 584.00 84.04 584.00 C 82.55 584.00 82.45 584.80 83.18 591.25 C 84.54 603.23 86.96 613.00 88.57 613.00 C 89.36 613.00 90.00 612.80 90.00 612.56 Z M 113.57 609.75 C 111.97 602.18 111.01 595.22 111.01 591.22 C 111.00 588.29 110.51 586.75 109.46 586.35 C 108.61 586.02 107.63 586.04 107.28 586.39 C 106.50 587.17 108.66 604.07 110.20 609.25 C 111.64 614.09 114.57 614.53 113.57 609.75 Z M 131.00 610.60 C 142.69 606.37 141.79 606.60 139.56 608.42 C 137.11 610.41 138.94 610.52 141.56 608.53 C 142.65 607.70 142.95 607.05 142.25 607.03 C 141.56 607.01 141.00 606.10 141.00 605.00 C 141.00 602.93 139.55 602.30 138.55 603.92 C 137.97 604.86 125.52 608.00 122.39 608.00 C 119.08 608.00 121.85 606.86 128.54 605.46 C 136.95 603.70 140.03 601.83 139.28 598.95 C 138.86 597.36 138.20 596.99 136.61 597.44 C 132.94 598.48 120.92 601.00 119.68 600.98 C 116.78 600.95 121.90 599.06 127.93 597.95 C 135.98 596.46 138.00 595.48 138.00 593.05 C 138.00 588.65 137.22 588.16 132.70 589.73 C 128.26 591.26 118.00 592.66 118.00 591.73 C 118.00 591.43 121.26 590.62 125.25 589.93 C 131.60 588.84 132.13 588.59 129.50 587.94 C 127.85 587.54 123.24 586.96 119.25 586.66 C 112.89 586.18 112.00 586.32 112.02 587.81 C 112.05 590.73 113.94 603.29 115.10 608.25 C 116.20 612.98 116.22 613.00 120.35 612.98 C 122.63 612.97 127.43 611.90 131.00 610.60 Z M 839.92 609.25 C 841.04 605.05 843.35 587.01 842.83 586.52 C 842.40 586.11 823.82 587.84 823.33 588.34 C 823.12 588.55 826.34 589.26 830.47 589.93 C 834.61 590.60 838.00 591.40 838.00 591.72 C 838.00 592.65 826.48 591.16 822.13 589.66 L 818.10 588.27 L 817.43 591.31 C 816.54 595.35 818.11 596.39 827.53 598.00 C 831.67 598.71 835.30 599.68 835.59 600.15 C 835.88 600.62 835.98 601.00 835.81 601.00 C 834.99 601.00 819.30 597.89 817.87 597.45 C 816.82 597.12 816.06 597.67 815.71 599.00 C 814.97 601.82 818.11 603.71 826.46 605.46 C 833.55 606.94 835.88 608.00 832.06 608.00 C 828.93 608.00 817.71 605.05 816.55 603.92 C 814.92 602.34 813.85 602.91 814.18 605.18 C 814.43 606.91 816.13 607.92 822.50 610.15 C 826.90 611.69 832.40 612.96 834.71 612.98 C 838.74 613.00 838.97 612.84 839.92 609.25 Z M 844.96 609.25 C 846.49 603.85 848.52 587.18 847.74 586.41 C 847.38 586.05 846.39 586.02 845.54 586.35 C 844.46 586.76 843.99 588.36 843.97 591.72 C 843.95 594.35 843.28 600.10 842.48 604.50 C 841.69 608.90 841.03 612.61 841.02 612.75 C 841.01 612.89 841.65 613.00 842.45 613.00 C 843.28 613.00 844.36 611.38 844.96 609.25 Z M 869.35 606.25 C 870.17 602.54 871.15 596.80 871.51 593.50 C 871.87 590.20 872.38 586.71 872.65 585.75 C 872.99 584.52 872.56 584.00 871.21 584.00 C 869.53 584.00 869.19 585.00 868.58 591.75 C 867.96 598.62 867.28 602.82 865.47 610.75 C 865.13 612.28 865.42 613.00 866.40 613.00 C 867.36 613.00 868.34 610.76 869.35 606.25 Z M 890.09 610.26 C 891.22 607.29 893.46 595.64 894.52 587.25 C 895.08 582.84 894.93 582.00 893.59 582.00 C 892.52 582.00 892.00 582.90 891.99 584.75 C 891.99 587.49 889.69 603.59 888.42 609.75 C 887.60 613.71 888.66 614.03 890.09 610.26 Z M 908.72 607.57 C 910.31 601.11 913.27 580.94 912.71 580.38 C 912.47 580.14 908.72 580.29 904.39 580.72 L 896.50 581.50 L 895.79 588.63 C 895.06 595.90 892.74 608.06 891.46 611.29 C 890.81 612.94 891.42 613.06 899.13 612.79 L 907.50 612.50 L 908.72 607.57 Z M 914.23 611.62 C 914.99 610.87 918.96 609.70 923.06 609.03 C 930.95 607.73 935.00 605.87 935.00 603.53 C 935.00 602.31 934.53 602.30 931.75 603.45 C 927.75 605.11 916.00 606.96 916.00 605.93 C 916.00 605.51 917.91 604.88 920.25 604.52 C 927.00 603.48 934.65 601.13 935.75 599.76 C 936.31 599.07 937.07 597.07 937.45 595.33 L 938.13 592.15 L 934.44 594.03 C 930.38 596.10 920.65 598.39 918.73 597.73 C 918.05 597.50 921.01 596.48 925.31 595.46 C 935.30 593.09 938.61 591.09 939.20 587.09 C 939.45 585.39 939.62 584.00 939.57 584.00 C 939.52 584.00 937.91 584.47 935.99 585.05 C 929.98 586.86 919.00 588.80 919.00 588.05 C 919.00 587.66 922.71 586.55 927.25 585.59 C 931.79 584.63 936.58 583.15 937.91 582.30 L 940.31 580.75 L 936.91 579.32 C 934.38 578.25 931.56 578.06 926.00 578.57 C 914.39 579.64 914.40 579.63 913.62 588.17 C 913.00 594.93 910.86 606.70 909.46 611.14 C 908.73 613.42 912.10 613.76 914.23 611.62 Z M 37.25 611.34 C 36.56 611.06 35.44 611.06 34.75 611.34 C 34.06 611.62 34.62 611.84 36.00 611.84 C 37.38 611.84 37.94 611.62 37.25 611.34 Z M 920.25 611.34 C 919.56 611.06 918.44 611.06 917.75 611.34 C 917.06 611.62 917.62 611.84 919.00 611.84 C 920.38 611.84 920.94 611.62 920.25 611.34 Z M 32.25 610.34 C 31.56 610.06 30.44 610.06 29.75 610.34 C 29.06 610.62 29.62 610.84 31.00 610.84 C 32.38 610.84 32.94 610.62 32.25 610.34 Z M 819.00 610.28 C 818.17 609.98 816.26 609.10 814.75 608.34 C 813.24 607.57 812.00 607.17 812.00 607.44 C 812.00 608.27 817.40 610.92 819.00 610.88 C 820.33 610.85 820.33 610.78 819.00 610.28 Z M 925.25 610.34 C 924.56 610.06 923.44 610.06 922.75 610.34 C 922.06 610.62 922.62 610.84 924.00 610.84 C 925.38 610.84 925.94 610.62 925.25 610.34 Z M 147.37 601.25 C 148.69 598.64 150.24 594.81 150.81 592.75 C 151.81 589.10 151.77 589.00 149.17 588.99 C 147.70 588.98 144.81 588.70 142.75 588.36 C 139.12 587.76 139.00 587.83 139.00 590.72 C 139.00 595.18 142.62 606.00 144.10 606.00 C 144.58 606.00 146.05 603.86 147.37 601.25 Z M 813.91 599.81 C 815.06 596.40 816.00 592.33 816.00 590.76 L 816.00 587.90 L 809.75 588.58 C 806.31 588.96 803.39 589.35 803.25 589.46 C 802.09 590.39 809.41 606.00 811.01 606.00 C 811.45 606.00 812.76 603.21 813.91 599.81 Z M 15.17 592.30 C 14.59 589.66 13.85 585.81 13.51 583.75 C 13.15 581.51 12.35 580.00 11.53 580.00 C 10.40 580.00 10.51 581.27 12.09 586.75 C 13.17 590.46 14.31 594.53 14.64 595.80 C 15.77 600.12 16.23 597.11 15.17 592.30 Z M 943.95 582.25 C 943.98 581.01 943.55 580.00 943.00 580.00 C 942.45 580.00 942.00 580.19 942.00 580.41 C 942.00 580.64 941.33 584.35 940.50 588.66 C 939.68 592.97 939.05 596.95 939.10 597.50 C 939.27 599.19 943.90 584.64 943.95 582.25 Z M 706.50 591.57 C 721.35 591.29 746.10 590.16 761.50 589.04 C 805.28 585.89 841.96 583.08 860.50 581.48 C 869.85 580.67 878.51 580.01 879.75 580.01 C 882.38 580.00 882.86 576.56 880.66 573.55 C 879.40 571.83 878.54 571.79 866.91 572.87 C 860.08 573.50 849.10 574.45 842.50 574.99 C 835.90 575.53 825.78 576.42 820.00 576.97 C 814.22 577.51 800.72 578.64 790.00 579.47 C 779.28 580.30 764.88 581.44 758.00 582.00 C 700.50 586.71 589.11 588.54 417.10 587.59 C 296.90 586.93 259.45 586.15 220.00 583.46 C 195.10 581.76 138.99 577.26 100.60 573.88 C 76.41 571.75 75.67 571.74 74.35 573.53 C 73.61 574.55 73.00 576.42 73.00 577.69 C 73.00 579.47 73.56 580.00 75.43 580.00 C 76.77 580.00 91.28 581.12 107.68 582.49 C 211.62 591.15 215.09 591.31 317.00 591.93 C 421.92 592.57 665.17 592.35 706.50 591.57 Z M 687.50 584.02 C 727.97 582.66 774.45 579.26 867.25 570.84 L 880.00 569.68 L 880.00 566.32 C 880.00 560.61 878.68 560.51 848.47 563.95 C 779.28 571.84 735.92 575.97 701.50 577.96 C 692.15 578.50 640.17 579.46 586.00 580.11 C 482.90 581.33 291.56 580.10 254.00 577.97 C 223.59 576.24 187.92 572.90 120.29 565.44 C 75.05 560.44 75.00 560.45 75.00 566.36 L 75.00 569.66 L 89.25 570.90 C 97.09 571.59 110.47 572.78 119.00 573.56 C 154.19 576.75 227.02 582.22 252.50 583.59 C 295.06 585.87 622.37 586.19 687.50 584.02 Z M 928.00 575.76 C 933.22 575.68 938.75 575.97 940.29 576.43 C 945.06 577.83 947.00 575.04 947.00 566.76 L 947.00 559.84 L 943.75 561.83 C 937.42 565.71 925.15 567.87 894.50 570.50 C 884.41 571.37 882.47 571.87 883.86 573.26 C 884.48 573.88 885.00 575.58 885.00 577.01 L 885.00 579.62 L 901.75 577.77 C 910.96 576.75 922.78 575.85 928.00 575.76 Z M 70.00 576.56 C 70.00 575.22 70.46 573.84 71.02 573.49 C 73.25 572.11 70.66 571.27 62.28 570.64 C 33.25 568.46 17.69 565.78 11.25 561.83 L 8.00 559.84 L 8.00 566.76 C 8.00 574.98 9.92 577.77 14.71 576.53 C 20.82 574.95 27.23 575.03 43.50 576.86 C 52.85 577.91 62.64 578.82 65.25 578.89 C 69.65 578.99 70.00 578.82 70.00 576.56 Z M 695.50 575.05 C 716.61 573.93 742.58 571.91 767.50 569.46 C 804.61 565.81 875.24 558.01 875.80 557.51 C 875.96 557.36 875.82 556.14 875.49 554.80 C 875.04 553.02 873.22 551.60 868.79 549.57 C 865.45 548.03 860.75 544.96 858.34 542.75 C 853.27 538.07 851.81 533.99 846.98 511.00 C 840.42 479.74 835.13 463.03 831.32 461.57 C 830.57 461.28 824.68 462.36 818.23 463.97 C 799.38 468.67 742.34 479.10 736.50 478.93 L 734.50 478.86 L 736.50 477.99 C 737.60 477.50 745.70 475.92 754.50 474.47 C 785.02 469.45 811.99 464.20 824.46 460.87 C 829.30 459.58 828.04 458.63 819.50 457.12 C 804.23 454.43 793.29 454.00 778.27 455.49 C 748.42 458.46 715.66 460.98 694.20 461.97 C 655.03 463.76 505.69 465.16 421.50 464.52 C 284.90 463.48 250.54 462.33 193.50 456.90 C 166.54 454.33 156.94 454.24 141.55 456.43 C 128.84 458.23 125.22 459.32 128.59 460.34 C 137.38 462.98 176.11 470.48 207.00 475.51 C 216.61 477.08 222.92 478.89 219.08 478.97 C 213.29 479.09 152.37 467.85 134.63 463.39 C 125.12 460.99 124.69 460.97 122.78 462.70 C 121.69 463.69 120.21 465.63 119.49 467.02 C 117.75 470.39 111.72 492.90 109.05 506.00 C 105.48 523.48 102.82 534.37 101.46 537.00 C 99.36 541.07 93.94 545.58 87.00 549.02 C 79.37 552.80 80.42 551.93 79.66 555.11 C 79.05 557.64 79.20 557.74 84.77 558.34 C 87.92 558.67 104.45 560.52 121.50 562.44 C 209.95 572.39 244.25 575.00 300.00 575.99 C 362.17 577.10 670.65 576.37 695.50 575.05 Z M 72.00 566.00 C 72.00 564.35 71.89 563.00 71.75 563.00 C 68.82 563.00 38.46 558.62 35.75 557.81 C 33.66 557.18 30.30 555.24 28.28 553.50 C 24.87 550.55 24.59 549.89 24.29 543.91 C 22.54 509.42 19.91 446.60 19.37 426.50 C 18.73 402.41 18.39 400.06 15.59 400.02 C 14.37 399.99 15.54 466.44 17.44 504.50 C 19.27 541.42 19.78 546.97 21.32 546.60 C 21.97 546.45 22.16 546.52 21.75 546.75 C 21.34 546.98 21.00 548.00 21.00 549.02 C 21.00 550.05 20.60 551.13 20.11 551.43 C 18.16 552.64 17.24 548.95 16.64 537.50 C 16.29 530.90 15.27 511.77 14.38 495.00 C 13.40 476.63 12.70 446.00 12.63 418.00 C 12.50 372.31 12.46 371.43 10.33 367.50 C 8.52 364.16 8.05 363.80 7.45 365.31 C 7.06 366.31 7.32 368.34 8.03 369.81 C 9.00 371.84 9.40 383.05 9.67 415.50 C 9.99 454.36 10.66 480.29 12.65 530.25 C 13.08 541.20 12.97 547.00 12.31 547.00 C 11.70 547.00 11.05 538.97 10.64 526.25 C 10.26 514.84 9.54 493.35 9.03 478.50 C 8.52 463.65 8.07 433.95 8.04 412.50 C 8.00 389.14 7.58 372.90 7.00 372.00 C 5.63 369.89 5.74 419.30 7.22 474.50 C 7.88 499.25 8.33 528.17 8.22 538.77 L 8.03 558.05 L 11.26 560.03 C 17.03 563.57 17.25 563.61 59.00 568.29 C 60.92 568.50 64.64 568.75 67.25 568.84 C 71.90 569.00 72.00 568.93 72.00 566.00 Z M 918.00 565.93 C 932.64 564.30 936.40 563.53 941.00 561.24 L 946.50 558.50 L 946.42 548.50 C 946.37 543.00 946.70 525.90 947.13 510.50 C 948.59 459.19 949.33 370.68 948.28 371.32 C 947.68 371.70 947.07 394.21 946.67 430.71 C 946.32 463.05 945.61 496.92 945.09 506.00 C 944.57 515.08 944.00 528.01 943.82 534.75 C 943.65 541.48 943.09 547.00 942.59 547.00 C 942.06 547.00 941.98 539.91 942.39 529.75 C 944.38 481.15 944.94 456.71 944.97 417.22 C 945.00 380.66 945.24 373.37 946.53 370.27 C 948.88 364.65 947.44 362.74 944.49 367.55 L 942.06 371.50 L 942.03 415.00 C 941.98 474.83 938.96 548.30 936.43 550.94 C 934.16 553.30 933.69 551.46 934.86 544.79 C 936.67 534.52 939.95 451.27 939.99 414.75 C 940.00 401.15 939.98 401.00 937.75 401.00 L 935.50 401.01 L 935.20 426.75 C 935.03 440.91 933.86 474.45 932.59 501.29 C 930.32 549.33 930.25 550.11 927.98 552.53 C 924.44 556.29 916.22 558.83 902.24 560.49 C 882.12 562.87 883.00 562.61 883.00 566.16 L 883.00 569.24 L 891.75 568.56 C 896.56 568.19 908.38 567.00 918.00 565.93 Z M 75.47 557.75 C 75.75 556.51 76.89 550.10 78.01 543.50 C 89.10 477.83 100.55 435.84 110.10 425.79 C 114.37 421.29 113.48 420.76 108.69 424.96 C 100.15 432.47 92.05 456.71 81.96 505.00 C 78.48 521.71 72.00 556.94 72.00 559.25 C 72.00 561.08 75.01 559.77 75.47 557.75 Z M 883.00 558.75 C 883.00 558.06 881.69 550.08 880.08 541.00 C 871.53 492.57 861.41 452.09 853.94 436.39 C 850.30 428.74 844.59 422.00 841.75 422.00 C 841.11 422.00 842.00 423.24 843.75 424.75 C 850.04 430.19 855.46 444.02 862.92 473.64 C 867.65 492.44 872.84 518.18 876.51 541.00 C 879.63 560.45 879.51 560.00 881.47 560.00 C 882.31 560.00 883.00 559.44 883.00 558.75 Z M 70.42 556.75 C 70.67 555.51 71.63 550.00 72.54 544.50 C 73.46 539.00 76.15 524.83 78.52 513.00 C 88.67 462.43 96.78 436.01 105.08 426.56 C 111.70 419.03 117.65 417.92 140.45 420.01 C 159.51 421.76 222.73 426.86 240.50 428.08 C 264.04 429.70 264.26 431.25 240.89 430.83 L 222.28 430.50 L 224.61 433.56 C 225.89 435.24 227.91 438.81 229.10 441.49 L 231.26 446.37 L 228.98 448.21 C 227.09 449.75 225.52 449.97 219.60 449.55 C 215.70 449.27 202.08 448.29 189.35 447.37 C 176.62 446.46 165.49 445.98 164.60 446.32 C 163.72 446.66 163.00 447.80 163.00 448.85 C 163.00 451.19 161.79 451.03 208.50 454.97 C 260.51 459.36 277.26 459.94 381.34 460.96 C 480.65 461.94 653.10 460.88 691.00 459.05 C 710.61 458.11 763.09 453.98 781.00 451.97 C 785.67 451.45 790.06 451.01 790.75 451.01 C 792.54 451.00 792.30 447.05 790.46 446.35 C 789.61 446.02 779.15 446.49 767.21 447.38 C 734.96 449.80 727.45 449.87 725.37 447.79 C 723.75 446.18 723.85 445.71 727.03 439.43 C 728.89 435.77 730.99 432.56 731.71 432.28 C 735.41 430.86 731.28 430.52 714.25 430.84 C 690.33 431.28 691.04 429.71 715.50 428.06 C 725.40 427.40 743.62 426.01 756.00 424.98 C 840.83 417.92 838.71 417.98 845.13 422.31 C 850.14 425.69 854.50 432.07 858.02 441.21 C 865.13 459.66 875.42 502.62 881.98 541.33 C 883.55 550.59 885.08 558.41 885.38 558.71 C 886.07 559.40 912.42 556.28 917.36 554.91 C 919.42 554.34 922.52 552.62 924.24 551.08 C 927.23 548.40 927.39 547.87 927.81 539.19 L 928.24 530.10 L 922.87 532.14 C 916.34 534.63 904.40 537.00 898.41 537.00 C 891.85 537.00 892.39 534.18 900.05 528.54 C 912.93 519.06 921.48 515.58 925.98 517.99 C 927.19 518.63 928.33 519.00 928.52 518.81 C 929.54 517.79 932.00 442.38 932.00 412.03 L 932.00 376.89 L 934.50 373.21 C 936.95 369.61 937.00 369.14 937.00 350.77 C 937.00 340.45 936.84 332.00 936.64 332.00 C 936.44 332.00 933.08 333.32 929.18 334.93 C 917.01 339.95 904.76 343.81 894.18 345.96 C 872.48 350.38 856.50 351.11 767.51 351.70 L 683.53 352.26 L 680.37 354.67 C 678.54 356.06 674.54 357.57 670.85 358.26 C 661.44 360.00 291.93 360.00 283.60 358.25 C 280.36 357.57 276.30 355.94 274.59 354.64 L 271.48 352.26 L 188.99 351.71 C 108.35 351.17 91.84 350.58 70.00 347.44 C 55.85 345.41 35.73 339.45 19.75 332.54 C 18.12 331.84 18.00 333.06 18.00 350.66 C 18.00 368.99 18.07 369.64 20.43 373.11 L 22.85 376.68 L 22.80 412.59 C 22.76 442.48 25.31 517.65 26.41 518.74 C 26.58 518.91 27.99 518.57 29.54 517.99 C 34.69 516.03 42.18 519.14 54.95 528.54 C 60.72 532.79 62.51 535.95 60.02 537.49 C 57.61 538.98 30.98 532.89 27.61 530.09 C 26.08 528.81 27.10 546.77 28.72 549.61 C 30.61 552.94 38.53 555.67 51.00 557.29 C 68.06 559.51 69.87 559.46 70.42 556.75 Z M 89.56 544.39 C 98.08 539.44 99.53 536.41 104.06 514.00 C 108.04 494.30 113.45 473.01 115.85 467.65 C 118.10 462.61 122.27 458.33 126.75 456.46 C 130.23 455.01 149.58 452.00 155.46 452.00 C 159.14 452.00 162.00 449.88 162.00 447.15 C 162.00 445.64 158.76 445.16 133.86 442.97 L 105.71 440.50 L 103.96 444.60 C 101.46 450.42 96.67 467.86 92.45 486.50 C 88.89 502.18 81.00 543.64 81.00 546.62 C 81.00 548.49 83.73 547.77 89.56 544.39 Z M 874.00 546.89 C 874.00 544.73 869.00 516.26 866.46 503.95 C 861.09 477.92 853.41 448.64 850.49 442.98 L 849.18 440.45 L 821.67 442.97 C 806.53 444.36 793.88 445.78 793.55 446.11 C 793.22 446.45 793.36 447.81 793.86 449.14 C 794.73 451.42 795.48 451.62 807.78 452.79 C 828.50 454.77 834.00 457.19 838.41 466.27 C 841.12 471.86 846.28 491.50 850.46 512.18 C 855.43 536.77 857.82 541.29 868.43 546.11 C 873.20 548.27 874.00 548.39 874.00 546.89 Z M 59.47 535.05 C 60.19 533.88 47.36 524.65 40.50 521.39 C 37.75 520.09 34.36 519.02 32.97 519.01 C 29.65 519.00 26.00 521.62 26.00 524.02 C 26.00 528.46 32.98 531.73 48.45 534.54 C 57.36 536.16 58.74 536.22 59.47 535.05 Z M 917.49 532.10 C 927.49 529.29 931.73 524.02 926.78 520.56 C 923.69 518.39 920.34 518.62 914.50 521.39 C 909.28 523.87 895.00 533.59 895.00 534.67 C 895.00 535.84 910.48 534.07 917.49 532.10 Z M 950.88 499.08 C 950.95 490.60 950.84 483.85 950.64 484.08 C 950.44 484.31 950.05 495.75 949.78 509.50 C 949.48 524.17 949.59 530.37 950.02 524.50 C 950.43 519.00 950.82 507.56 950.88 499.08 Z M 5.73 518.72 C 5.52 516.40 5.35 518.55 5.35 523.50 C 5.36 528.45 5.53 530.35 5.74 527.72 C 5.94 525.09 5.94 521.04 5.73 518.72 Z M 5.24 503.25 C 4.75 483.34 4.38 481.40 4.19 497.75 C 4.09 506.69 4.34 514.00 4.75 514.00 C 5.16 514.00 5.38 509.17 5.24 503.25 Z M 227.99 445.25 C 227.97 443.80 222.21 434.48 220.23 432.70 C 218.17 430.85 205.49 428.18 204.31 429.35 C 203.95 429.71 204.60 431.02 205.76 432.25 C 206.91 433.49 208.15 435.69 208.51 437.13 C 209.03 439.24 209.92 439.89 212.95 440.38 C 215.03 440.71 217.30 441.66 217.99 442.49 C 219.56 444.38 220.46 444.38 199.30 442.54 C 190.06 441.74 170.80 440.16 156.50 439.03 C 142.20 437.90 125.63 436.47 119.69 435.85 C 111.71 435.02 108.58 435.02 107.75 435.85 C 107.14 436.46 106.83 437.14 107.07 437.36 C 107.45 437.70 180.85 443.87 202.00 445.34 C 211.76 446.01 228.00 445.96 227.99 445.25 Z M 777.50 443.54 C 824.31 439.72 847.54 437.67 847.93 437.34 C 848.17 437.13 847.88 436.48 847.29 435.89 C 846.53 435.13 841.37 435.27 829.36 436.39 C 820.09 437.25 798.10 439.10 780.50 440.49 C 762.90 441.89 745.58 443.32 742.02 443.68 C 735.88 444.29 735.63 444.23 737.26 442.60 C 738.20 441.65 740.56 440.62 742.49 440.31 C 744.85 439.93 746.00 439.20 746.00 438.10 C 746.00 437.19 747.38 434.78 749.07 432.73 L 752.15 429.00 L 749.71 429.00 C 744.89 429.00 736.60 431.05 734.79 432.69 C 732.89 434.41 727.00 444.12 727.00 445.53 C 727.00 446.52 753.93 445.46 777.50 443.54 Z M 214.00 442.00 C 212.62 441.56 210.60 441.20 209.50 441.20 C 207.92 441.20 208.02 441.37 210.00 442.00 C 211.38 442.44 213.40 442.80 214.50 442.80 C 216.08 442.80 215.98 442.63 214.00 442.00 Z M 744.00 442.00 C 746.01 441.36 746.11 441.19 744.50 441.17 C 743.40 441.15 741.60 441.53 740.50 442.00 C 737.95 443.10 740.58 443.10 744.00 442.00 Z M 205.97 435.86 C 203.35 430.78 199.79 428.00 195.89 428.00 C 193.83 428.00 179.41 426.85 163.85 425.45 C 128.89 422.30 121.49 422.11 117.50 424.22 C 114.18 425.98 109.38 430.72 110.15 431.48 C 110.95 432.29 142.83 435.05 195.00 438.83 C 200.77 439.25 205.88 439.28 206.34 438.90 C 206.81 438.53 206.64 437.15 205.97 435.86 Z M 791.00 436.49 C 825.90 433.87 844.19 432.15 844.91 431.42 C 845.63 430.71 840.69 425.91 837.57 424.29 C 835.70 423.32 832.07 422.79 827.57 422.83 C 820.82 422.89 763.95 427.54 757.33 428.57 C 752.81 429.27 746.30 436.97 748.43 439.10 C 748.96 439.63 749.95 439.57 791.00 436.49 Z M 19.96 388.25 C 19.93 378.34 19.74 377.27 17.47 374.50 L 15.01 371.50 L 15.00 385.25 L 15.00 399.00 L 17.50 399.00 L 20.00 399.00 L 19.96 388.25 Z M 939.96 385.25 L 939.93 371.50 L 937.47 374.50 C 935.20 377.27 935.01 378.31 935.00 388.25 L 935.00 399.00 L 937.50 399.00 L 940.00 399.00 L 939.96 385.25 Z M 15.52 354.60 C 15.51 347.23 15.20 341.68 14.84 342.27 C 14.47 342.85 13.85 348.48 13.46 354.78 C 12.89 364.00 13.01 366.39 14.12 367.10 C 14.88 367.58 15.51 367.98 15.52 367.98 C 15.53 367.99 15.53 361.97 15.52 354.60 Z M 941.52 355.68 C 940.47 339.36 939.27 338.56 939.27 354.17 C 939.27 365.85 939.48 367.75 940.75 367.26 C 942.00 366.78 942.12 364.96 941.52 355.68 Z M 638.66 356.10 C 677.74 355.26 676.82 355.43 681.34 348.22 C 682.63 346.18 695.07 323.35 708.99 297.50 C 736.88 245.70 748.87 225.10 759.08 211.44 C 766.58 201.40 777.62 190.49 784.74 186.05 L 789.38 183.16 L 785.94 182.61 C 763.99 179.10 672.22 174.80 569.74 172.49 L 543.99 171.90 L 543.09 174.27 C 542.59 175.57 541.23 181.11 540.06 186.57 C 538.89 192.03 537.69 197.29 537.40 198.25 C 536.94 199.76 537.58 200.00 542.18 200.01 C 548.53 200.01 558.45 201.54 562.19 203.08 C 563.66 203.69 565.30 205.42 565.82 206.92 C 566.57 209.05 568.10 210.13 572.85 211.87 C 576.19 213.08 580.26 215.41 581.88 217.04 C 584.78 219.94 585.24 221.19 586.53 229.75 L 587.18 234.00 L 602.34 234.03 C 629.48 234.09 671.36 235.85 675.00 237.09 C 679.21 238.52 683.00 241.76 683.00 243.92 C 683.00 245.42 674.51 261.40 670.61 267.25 C 669.60 268.76 669.20 270.00 669.73 270.00 C 670.26 270.00 677.15 259.54 685.04 246.75 C 692.93 233.96 701.98 219.62 705.14 214.87 C 712.19 204.28 726.96 185.62 727.70 186.36 C 727.99 186.66 726.22 189.29 723.76 192.20 C 715.30 202.19 711.52 207.96 678.22 261.50 C 669.13 276.11 665.71 279.88 658.50 283.20 L 653.50 285.50 L 593.00 285.27 C 559.72 285.15 531.18 284.67 529.57 284.22 C 527.95 283.76 525.73 282.18 524.63 280.70 L 522.62 278.01 L 525.92 255.26 C 530.34 224.72 533.77 204.04 534.92 201.00 C 535.75 198.80 541.00 174.33 541.00 172.65 C 541.00 172.29 512.42 172.00 477.50 172.00 C 439.46 172.00 414.00 172.37 414.00 172.92 C 414.00 173.85 416.35 184.45 420.01 200.00 C 422.00 208.46 427.23 240.18 430.58 264.02 C 431.54 270.90 432.02 277.79 431.63 279.33 C 430.21 285.00 429.94 285.03 362.73 285.27 L 301.50 285.50 L 295.81 282.83 C 288.55 279.43 285.84 275.94 267.66 246.50 C 249.64 217.33 241.11 204.49 233.27 194.75 C 229.85 190.49 227.42 187.00 227.89 187.00 C 230.66 187.00 251.06 215.56 266.47 241.00 C 279.00 261.69 284.38 269.97 285.31 269.99 C 285.75 269.99 284.95 268.09 283.52 265.75 C 282.10 263.41 278.87 257.75 276.34 253.17 C 272.41 246.04 271.91 244.50 272.83 242.47 C 275.67 236.24 280.99 235.53 333.27 234.45 C 372.68 233.63 368.20 234.83 369.50 224.77 C 370.30 218.66 374.06 214.82 382.12 211.87 C 386.32 210.34 388.44 208.97 389.04 207.39 C 389.52 206.13 390.94 204.43 392.21 203.61 C 394.91 201.85 405.33 200.02 412.73 200.01 L 417.95 200.00 L 417.33 196.75 C 416.99 194.96 415.54 188.77 414.11 183.00 L 411.50 172.50 L 384.50 172.78 C 312.83 173.53 193.31 179.00 169.70 182.61 L 165.91 183.19 L 170.67 186.21 C 177.69 190.66 188.30 201.28 195.94 211.50 C 207.19 226.56 216.93 243.41 249.97 305.00 C 272.86 347.66 275.50 352.10 279.29 354.20 C 280.82 355.04 290.74 355.61 311.50 356.03 C 355.81 356.92 597.93 356.98 638.66 356.10 Z M 265.30 339.75 C 262.27 334.11 252.80 316.45 244.26 300.50 C 201.27 220.22 189.24 202.33 169.32 189.01 L 161.83 184.00 L 153.50 184.00 C 139.35 184.00 120.16 188.87 105.78 196.10 C 93.26 202.40 64.01 222.35 46.38 236.60 C 40.81 241.11 35.29 245.31 34.11 245.94 C 31.62 247.27 29.62 246.44 30.40 244.40 C 31.31 242.03 29.55 242.84 26.15 246.35 C 22.05 250.58 18.53 260.75 15.90 276.00 C 13.81 288.16 10.96 316.95 11.73 318.30 C 11.97 318.74 17.31 321.52 23.59 324.48 C 32.02 328.45 35.00 330.34 34.98 331.68 C 34.97 332.90 34.72 333.10 34.21 332.30 C 33.79 331.65 30.31 329.76 26.47 328.12 C 19.73 325.23 19.49 325.20 19.17 327.15 C 18.99 328.26 19.04 329.37 19.29 329.62 C 20.53 330.86 37.76 337.24 47.00 339.89 C 75.55 348.06 100.10 349.61 204.66 349.85 L 270.81 350.00 L 265.30 339.75 Z M 835.50 348.96 C 876.19 347.42 896.04 344.52 917.00 337.04 C 931.16 331.99 936.00 329.44 936.00 327.00 C 936.00 324.85 936.03 324.85 926.52 328.97 C 923.78 330.15 921.20 331.66 920.79 332.31 C 920.29 333.10 920.03 332.89 920.02 331.69 C 920.00 330.36 923.11 328.39 931.65 324.28 L 943.29 318.68 L 942.65 307.09 C 941.80 291.63 938.55 270.15 935.44 259.31 C 933.38 252.15 932.16 249.75 928.95 246.51 C 925.38 242.92 925.00 242.75 925.00 244.76 C 925.00 249.08 923.46 248.18 902.58 231.68 C 890.97 222.49 854.84 198.42 848.00 195.30 C 831.38 187.74 813.72 183.60 800.42 184.15 C 792.48 184.49 791.98 184.66 785.10 189.36 C 765.80 202.55 753.23 221.17 713.46 295.50 C 702.57 315.85 691.53 336.44 688.91 341.25 L 684.16 350.00 L 746.33 349.99 C 780.52 349.99 820.65 349.53 835.50 348.96 Z M 16.68 325.81 C 16.36 325.01 16.13 325.25 16.08 326.42 C 16.04 327.47 16.27 328.06 16.60 327.73 C 16.94 327.40 16.97 326.53 16.68 325.81 Z M 396.72 282.14 C 421.83 281.59 426.16 281.27 427.56 279.87 C 429.07 278.36 429.06 277.22 427.53 264.87 C 426.61 257.52 424.09 240.75 421.93 227.60 C 419.77 214.46 418.00 203.55 418.00 203.35 C 418.00 203.16 417.27 203.00 416.38 203.00 C 415.14 203.00 414.91 203.63 415.37 205.75 C 416.18 209.41 423.67 261.77 424.54 269.88 C 425.03 274.46 424.91 276.06 424.11 275.57 C 423.50 275.19 423.00 273.00 422.99 270.69 C 422.98 265.51 415.48 212.50 413.96 206.85 L 412.85 202.74 L 406.42 203.40 C 402.88 203.76 398.30 204.61 396.24 205.28 L 392.50 206.51 L 392.00 231.60 C 391.63 250.23 391.16 257.10 390.19 258.28 C 388.55 260.24 380.67 262.99 376.57 263.02 C 373.86 263.04 374.50 263.62 382.00 267.98 C 386.67 270.70 393.06 274.18 396.20 275.71 C 401.87 278.49 404.03 280.75 399.75 279.45 C 398.51 279.07 391.35 275.40 383.83 271.31 C 363.96 260.47 365.26 260.73 334.02 261.55 L 307.53 262.24 L 297.20 267.44 L 286.87 272.65 L 290.80 276.20 C 294.36 279.41 297.67 281.01 303.50 282.32 C 306.45 282.98 363.08 282.87 396.72 282.14 Z M 656.72 280.86 C 660.47 279.43 667.77 274.31 667.91 273.00 C 667.94 272.73 663.13 270.14 657.23 267.26 L 646.50 262.01 L 618.30 261.76 L 590.10 261.50 L 571.97 270.83 C 562.00 275.97 553.62 279.96 553.37 279.70 C 553.11 279.44 559.19 275.70 566.89 271.38 L 580.89 263.54 L 575.69 262.47 C 567.86 260.87 564.62 258.95 563.88 255.49 C 563.52 253.85 563.18 242.28 563.12 229.79 C 563.01 208.13 562.91 207.02 560.99 206.00 C 558.49 204.65 543.29 202.38 542.44 203.22 C 542.10 203.56 541.38 205.79 540.84 208.17 C 539.29 215.01 532.00 266.92 532.00 271.10 C 532.00 273.18 531.55 275.16 531.00 275.50 C 530.45 275.84 530.00 275.53 530.00 274.81 C 530.00 271.38 537.35 218.56 539.60 205.73 C 540.15 202.65 540.00 202.06 538.80 202.52 C 536.89 203.26 532.22 229.21 527.49 265.37 C 525.93 277.26 525.93 278.36 527.44 279.87 C 529.51 281.94 552.93 282.70 611.50 282.56 C 646.57 282.48 653.11 282.24 656.72 280.86 Z M 298.85 263.36 L 307.74 258.72 L 335.91 258.61 C 368.13 258.48 364.41 259.87 365.48 247.60 C 365.81 243.81 366.56 239.81 367.15 238.72 C 368.20 236.75 367.95 236.74 337.36 237.44 C 290.69 238.52 279.19 239.36 276.67 241.89 C 274.66 243.90 274.65 244.04 276.37 247.72 C 280.19 255.90 287.57 267.99 288.73 268.00 C 289.41 268.00 293.96 265.91 298.85 263.36 Z M 670.45 262.51 C 675.84 254.08 680.19 244.95 679.58 243.35 C 678.23 239.84 672.78 239.09 640.86 238.04 C 623.61 237.47 604.42 237.01 598.21 237.00 C 587.78 237.00 587.00 237.13 587.86 238.75 C 588.37 239.71 589.09 243.65 589.45 247.50 C 590.61 259.89 586.90 258.49 618.78 258.55 L 646.65 258.61 L 655.57 263.25 C 660.48 265.80 665.05 267.91 665.72 267.94 C 666.39 267.97 668.52 265.53 670.45 262.51 Z M 383.50 258.58 C 387.34 257.26 387.54 256.98 388.41 251.60 C 388.91 248.52 389.08 245.75 388.78 245.45 C 388.49 245.15 385.23 246.12 381.55 247.59 C 371.51 251.61 364.74 258.93 369.75 260.35 C 372.20 261.04 378.77 260.20 383.50 258.58 Z M 583.88 260.38 C 587.95 259.56 587.86 257.55 583.57 253.50 C 580.31 250.43 567.31 244.35 566.26 245.41 C 565.98 245.68 566.07 248.38 566.44 251.40 C 567.11 256.73 567.24 256.93 571.31 258.40 C 574.90 259.69 577.18 260.34 580.12 260.88 C 580.47 260.95 582.16 260.72 583.88 260.38 Z M 381.36 244.93 L 388.50 242.16 L 388.80 235.58 C 388.99 231.24 388.71 229.00 387.98 229.00 C 387.37 229.00 383.56 230.53 379.51 232.40 C 371.21 236.23 369.54 238.43 368.40 247.02 L 367.70 252.35 L 370.96 250.03 C 372.76 248.75 377.44 246.45 381.36 244.93 Z M 586.69 247.05 C 585.71 238.77 583.77 236.22 575.49 232.40 C 571.44 230.53 567.65 229.00 567.07 229.00 C 566.42 229.00 566.00 231.53 566.00 235.39 L 566.00 241.78 L 573.75 244.92 C 578.01 246.65 582.62 248.94 584.00 250.01 C 585.38 251.08 586.68 251.97 586.89 251.98 C 587.10 251.99 587.01 249.77 586.69 247.05 Z M 42.50 236.36 C 53.32 227.30 61.99 220.94 75.34 212.26 C 82.58 207.56 88.85 203.41 89.27 203.04 C 89.69 202.67 89.35 200.41 88.51 198.02 C 86.57 192.53 87.43 191.39 89.59 196.60 C 90.48 198.74 91.35 200.65 91.52 200.83 C 92.00 201.34 97.00 197.87 97.00 197.02 C 97.00 196.61 95.04 195.24 92.65 193.97 L 88.30 191.66 L 78.40 196.94 C 66.21 203.43 45.35 216.98 41.77 220.73 C 40.21 222.35 37.86 227.28 36.06 232.65 C 32.46 243.41 32.27 244.92 34.75 242.85 C 35.71 242.05 39.20 239.13 42.50 236.36 Z M 919.39 233.75 C 916.97 226.79 914.82 222.43 912.67 220.18 C 908.94 216.26 890.41 204.33 876.64 196.97 C 867.73 192.21 866.70 191.88 864.04 192.98 C 862.45 193.64 860.42 194.98 859.54 195.96 C 858.05 197.60 858.12 197.85 860.50 199.41 C 863.58 201.43 864.64 200.92 865.50 197.00 C 865.86 195.36 866.59 193.76 867.12 193.43 C 868.20 192.76 867.30 197.37 865.78 200.35 C 864.70 202.44 864.58 202.33 878.00 210.95 C 888.02 217.37 905.83 230.58 915.00 238.38 C 918.58 241.42 921.82 243.93 922.22 243.96 C 922.61 243.98 921.34 239.39 919.39 233.75 Z M 374.85 231.52 C 376.31 230.71 380.09 228.93 383.25 227.58 L 389.00 225.11 L 389.00 218.95 C 389.00 212.80 388.99 212.79 386.39 213.44 C 380.19 214.99 374.74 218.37 373.51 221.42 C 372.17 224.74 370.87 233.00 371.69 233.00 C 371.97 233.00 373.39 232.33 374.85 231.52 Z M 583.63 230.75 C 583.30 229.51 583.02 227.30 583.01 225.83 C 583.00 222.84 578.79 217.27 575.59 216.00 C 574.44 215.55 571.81 214.45 569.75 213.57 L 566.00 211.97 L 566.00 218.50 L 566.00 225.03 L 574.25 228.93 C 584.08 233.58 584.40 233.64 583.63 230.75 Z M 102.67 193.71 C 104.43 192.73 104.62 192.21 103.67 190.95 C 102.82 189.83 101.21 189.52 97.75 189.80 L 93.00 190.20 L 96.25 192.51 C 100.13 195.28 99.94 195.24 102.67 193.71 Z M 858.63 192.61 L 862.15 190.21 L 857.48 189.84 C 853.85 189.55 852.62 189.85 851.90 191.18 C 851.24 192.43 851.46 193.17 852.74 193.92 C 855.03 195.25 854.60 195.35 858.63 192.61 Z M 120.70 186.59 C 128.17 184.05 129.73 183.19 128.99 181.99 C 128.23 180.75 126.37 181.38 117.79 185.80 C 112.13 188.71 108.40 190.78 109.50 190.40 C 110.60 190.02 115.64 188.30 120.70 186.59 Z M 839.50 186.89 C 835.10 184.68 830.50 182.23 829.29 181.44 C 827.29 180.14 826.97 180.19 826.05 181.90 C 825.14 183.60 825.55 183.94 829.77 184.97 C 832.37 185.61 836.97 187.19 840.00 188.48 C 848.58 192.14 848.32 191.31 839.50 186.89 Z M 111.79 186.71 C 114.69 185.18 116.81 183.50 116.49 182.98 C 115.56 181.49 107.52 177.01 103.83 175.94 C 99.40 174.64 58.88 168.79 58.31 169.36 C 57.60 170.07 63.70 171.76 75.00 173.98 C 92.32 177.39 96.86 178.95 100.58 182.79 C 102.43 184.69 104.22 187.12 104.56 188.18 C 104.89 189.24 105.47 189.97 105.83 189.80 C 106.20 189.63 108.88 188.24 111.79 186.71 Z M 850.00 189.03 C 850.00 187.02 856.66 180.59 860.50 178.90 C 862.70 177.93 869.45 176.18 875.50 175.01 C 887.88 172.61 897.44 170.11 896.76 169.43 C 896.16 168.83 861.39 173.64 854.02 175.34 C 847.64 176.81 839.00 181.39 839.00 183.29 C 839.00 183.96 841.14 185.68 843.75 187.13 C 849.16 190.13 850.00 190.38 850.00 189.03 Z M 99.61 184.12 C 97.15 181.41 91.41 179.52 75.11 176.08 C 60.17 172.93 57.14 171.67 54.40 167.48 C 53.08 165.47 53.00 164.70 54.00 163.49 C 55.66 161.50 60.10 161.57 91.88 164.09 C 106.38 165.24 119.73 165.90 121.53 165.56 C 124.77 164.95 124.81 164.87 125.50 158.01 C 126.82 144.90 124.29 136.81 117.79 133.34 C 109.45 128.88 73.86 134.25 58.70 142.27 C 49.41 147.18 46.66 153.14 49.03 163.22 C 51.96 175.67 56.30 179.94 69.06 182.91 C 80.79 185.64 81.34 185.71 91.90 185.86 C 101.06 186.00 101.26 185.95 99.61 184.12 Z M 886.42 183.06 C 898.71 179.83 903.11 175.37 905.96 163.28 C 907.48 156.81 906.56 150.82 903.49 147.17 C 898.41 141.13 880.88 135.32 859.15 132.47 C 846.39 130.80 840.85 131.20 836.04 134.12 C 831.29 137.01 830.00 141.25 830.00 153.92 L 830.00 164.91 L 833.39 165.54 C 835.25 165.89 848.93 165.24 863.78 164.09 C 896.20 161.58 899.37 161.53 901.00 163.49 C 902.00 164.70 901.92 165.47 900.60 167.48 C 897.81 171.75 894.73 172.97 877.97 176.51 C 865.69 179.09 860.76 180.59 857.85 182.60 C 855.73 184.07 854.00 185.50 854.00 185.77 C 854.00 187.06 879.19 184.96 886.42 183.06 Z M 122.30 181.38 C 127.47 178.75 127.88 178.20 126.93 175.21 C 126.45 173.72 125.84 171.38 125.57 170.00 C 125.10 167.56 124.91 167.51 117.80 167.87 C 111.10 168.21 98.06 167.44 68.19 164.91 C 57.30 164.00 53.88 164.30 55.66 166.04 C 56.12 166.49 65.05 168.02 75.50 169.44 C 105.39 173.50 111.19 175.13 116.47 180.97 C 118.68 183.41 118.34 183.38 122.30 181.38 Z M 838.11 181.36 C 842.95 175.54 850.22 173.39 878.24 169.53 C 898.12 166.79 900.00 166.38 900.00 164.76 C 900.00 164.11 897.90 163.97 894.25 164.36 C 879.42 165.96 854.31 167.50 843.00 167.50 L 830.50 167.50 L 829.27 172.00 C 827.51 178.43 827.60 178.74 831.75 180.93 C 836.37 183.37 836.44 183.38 838.11 181.36 Z M 163.26 171.00 C 178.57 136.04 212.67 72.80 225.18 56.17 C 229.81 50.02 238.38 44.10 246.25 41.62 C 251.21 40.06 251.82 39.55 252.87 36.03 C 253.51 33.89 255.57 29.86 257.45 27.07 C 259.33 24.28 260.69 22.00 260.47 22.00 C 258.75 22.00 248.82 26.72 243.63 29.99 C 226.42 40.86 205.59 70.40 178.75 122.00 C 171.37 136.19 151.00 179.23 151.00 180.63 C 151.00 180.90 152.82 180.98 155.05 180.81 L 159.10 180.50 L 163.26 171.00 Z M 804.00 180.59 C 804.00 179.66 793.14 156.17 784.07 137.50 C 766.32 100.95 742.00 60.16 729.51 45.97 C 719.88 35.03 706.72 25.78 696.12 22.51 L 693.73 21.78 L 696.33 25.19 C 697.76 27.07 700.07 31.18 701.47 34.33 C 702.86 37.49 704.79 40.32 705.75 40.63 C 718.87 44.85 725.38 49.57 732.69 60.15 C 745.20 78.24 772.78 129.75 790.04 167.25 L 796.36 181.00 L 800.18 181.00 C 802.28 181.00 804.00 180.82 804.00 180.59 Z M 175.00 179.01 C 193.38 176.89 244.02 173.91 306.00 171.29 C 357.35 169.12 587.25 168.77 637.50 170.79 C 705.75 173.53 744.71 175.72 775.42 178.54 C 784.17 179.34 791.51 179.82 791.73 179.60 C 793.01 178.32 760.54 112.87 746.53 88.50 C 725.01 51.07 720.84 47.09 698.00 42.17 C 629.19 27.33 478.78 21.68 362.00 29.54 C 304.27 33.43 255.84 40.43 241.39 46.98 C 230.71 51.82 224.77 59.69 204.71 95.58 C 192.07 118.18 163.00 176.64 163.00 179.44 C 163.00 180.22 165.19 180.14 175.00 179.01 Z M 172.06 59.17 C 175.70 36.77 176.53 34.57 182.21 32.05 C 184.57 31.00 185.70 30.11 184.72 30.07 C 181.69 29.95 176.23 32.71 174.61 35.19 C 170.93 40.80 164.43 83.93 166.54 88.67 C 167.13 89.98 167.60 88.67 168.22 84.00 C 168.69 80.43 170.42 69.25 172.06 59.17 Z M 788.58 78.80 C 787.77 67.02 783.58 42.33 781.58 37.54 C 779.93 33.59 776.78 31.26 771.95 30.44 C 768.52 29.86 768.52 29.87 772.79 31.90 C 775.73 33.29 777.50 34.97 778.44 37.22 C 780.84 42.99 786.95 79.51 786.99 88.31 C 787.00 89.40 787.45 89.84 788.13 89.42 C 788.93 88.92 789.06 85.78 788.58 78.80 Z M 175.23 86.49 C 176.61 85.12 178.67 81.74 179.81 78.99 L 181.89 74.00 L 179.52 74.00 C 176.63 74.00 173.04 69.74 172.88 66.12 C 172.76 63.24 170.14 81.84 170.06 86.25 C 169.99 89.72 171.92 89.81 175.23 86.49 Z M 785.00 86.80 C 785.00 85.58 784.46 79.70 783.79 73.73 C 782.61 63.09 782.56 62.95 781.54 67.18 C 780.72 70.59 779.82 71.81 777.27 73.00 C 775.50 73.82 774.03 74.97 774.02 75.55 C 773.97 77.96 779.20 86.79 781.27 87.79 C 784.53 89.36 785.00 89.24 785.00 86.80 Z M 202.70 70.15 C 204.33 69.67 212.99 59.20 213.00 57.71 C 213.00 57.59 205.01 57.64 195.25 57.81 C 175.05 58.16 174.38 58.42 175.47 65.40 C 175.80 67.55 176.31 69.69 176.60 70.15 C 177.20 71.13 199.40 71.13 202.70 70.15 Z M 778.96 69.07 C 780.17 66.81 780.31 61.04 779.20 59.30 C 778.18 57.68 742.77 56.97 743.39 58.58 C 743.62 59.17 745.44 62.21 747.43 65.33 L 751.06 71.00 L 764.50 71.00 C 776.75 71.00 778.02 70.83 778.96 69.07 Z M 180.95 55.00 C 183.75 55.00 183.98 54.76 183.41 52.49 C 182.70 49.68 185.20 45.00 187.41 45.00 C 188.37 45.00 188.90 43.05 189.23 38.25 C 189.49 34.54 189.60 31.38 189.49 31.22 C 189.04 30.63 180.40 34.82 179.26 36.18 C 178.17 37.50 176.20 45.00 174.63 53.77 C 174.09 56.76 174.21 56.96 175.95 56.02 C 177.01 55.46 179.26 55.00 180.95 55.00 Z M 779.05 47.00 C 777.94 41.91 776.47 37.07 775.78 36.24 C 774.85 35.11 766.93 31.01 765.67 31.00 C 765.58 31.00 765.66 33.78 765.85 37.19 C 766.15 42.56 766.60 43.76 769.22 46.21 C 771.70 48.52 772.14 49.57 771.65 52.02 C 771.07 54.92 771.15 55.00 774.97 55.00 C 777.12 55.00 779.18 55.48 779.54 56.07 C 781.10 58.59 780.94 55.65 779.05 47.00 Z M 215.50 54.00 C 215.90 53.35 210.82 53.00 201.00 53.00 C 191.18 53.00 186.10 53.35 186.50 54.00 C 186.86 54.59 192.82 55.00 201.00 55.00 C 209.18 55.00 215.14 54.59 215.50 54.00 Z M 769.00 54.00 C 769.00 53.38 763.31 53.00 753.94 53.00 C 744.16 53.00 739.10 53.35 739.50 54.00 C 739.87 54.59 746.01 55.00 754.56 55.00 C 763.52 55.00 769.00 54.62 769.00 54.00 Z M 218.07 49.96 C 222.59 47.54 219.81 46.87 206.17 47.08 C 189.52 47.34 186.00 47.78 186.00 49.61 C 186.00 50.73 188.89 51.00 201.07 51.00 C 209.54 51.00 216.98 50.55 218.07 49.96 Z M 769.00 49.59 C 769.00 47.85 756.86 46.70 743.57 47.18 C 735.06 47.48 734.72 47.58 736.39 49.25 C 737.91 50.77 740.21 51.00 753.57 51.00 C 766.18 51.00 769.00 50.74 769.00 49.59 Z M 260.27 27.14 C 261.25 25.92 261.24 25.77 260.23 26.38 C 258.72 27.29 253.98 36.38 254.06 38.22 C 254.09 38.92 255.22 37.06 256.58 34.08 C 257.93 31.10 259.59 27.98 260.27 27.14 Z M 276.20 35.59 C 325.39 28.02 378.58 24.34 453.50 23.33 C 542.60 22.13 631.74 27.31 687.00 36.90 C 692.78 37.90 697.62 38.62 697.78 38.50 C 698.39 38.01 693.69 28.29 691.39 25.26 C 688.05 20.89 687.24 20.55 673.47 17.64 C 643.25 11.27 573.54 3.06 549.25 3.01 L 544.00 3.00 L 544.00 10.50 C 544.00 14.62 543.58 18.00 543.06 18.00 C 542.50 18.00 542.36 15.08 542.71 10.86 L 543.31 3.73 L 538.88 4.39 C 532.75 5.31 422.64 5.38 416.59 4.47 L 411.69 3.73 L 412.29 10.86 C 412.64 15.08 412.50 18.00 411.94 18.00 C 411.42 18.00 411.00 14.62 411.00 10.50 L 411.00 3.00 L 406.25 3.01 C 386.08 3.05 334.60 8.60 298.62 14.60 C 267.31 19.82 265.67 20.52 260.19 30.80 C 256.70 37.34 256.22 39.51 258.45 38.66 C 259.25 38.35 267.23 36.97 276.20 35.59 Z M 697.98 31.12 C 696.24 27.85 693.67 24.12 692.26 22.84 C 690.09 20.85 690.22 21.25 693.11 25.51 C 694.97 28.27 697.38 32.48 698.46 34.89 C 699.54 37.29 700.58 38.76 700.78 38.15 C 700.98 37.55 699.72 34.38 697.98 31.12 Z M 263.13 23.25 C 264.37 21.66 264.34 21.63 262.75 22.87 C 261.08 24.18 260.55 25.00 261.38 25.00 C 261.59 25.00 262.37 24.21 263.13 23.25 Z M 369.50 571.92 C 316.38 571.12 272.30 569.55 257.50 567.93 C 245.44 566.61 226.89 562.70 219.50 559.93 C 204.31 554.23 202.88 545.77 211.39 512.00 C 217.15 489.16 221.17 482.42 231.86 477.66 C 243.75 472.37 237.37 472.50 477.00 472.50 C 716.55 472.50 711.38 472.39 723.14 477.65 C 733.49 482.28 737.56 488.78 742.92 509.25 C 747.72 527.54 749.28 536.89 748.72 543.87 C 747.85 554.78 743.32 558.35 724.38 563.03 C 699.91 569.08 678.04 570.44 579.91 571.98 C 510.76 573.08 445.03 573.05 369.50 571.92 Z M 638.00 569.02 C 688.69 567.48 704.72 565.98 726.00 560.82 C 735.77 558.45 740.49 556.28 743.94 552.58 C 748.73 547.45 747.68 533.78 740.48 507.49 C 735.36 488.81 732.20 483.87 722.50 479.40 C 711.61 474.37 718.04 474.50 477.50 474.50 C 301.63 474.50 250.86 474.77 245.00 475.76 C 240.69 476.48 234.74 478.40 231.00 480.27 C 225.62 482.96 223.97 484.43 221.36 488.79 C 215.76 498.15 207.53 532.57 208.21 543.73 C 208.53 548.96 209.06 550.45 211.48 552.98 C 216.45 558.17 231.92 562.73 253.71 565.42 C 269.53 567.38 307.03 568.97 361.50 569.99 C 416.57 571.03 592.17 570.41 638.00 569.02 Z M 187.50 565.35 C 157.89 559.23 118.01 547.54 109.29 542.43 C 103.79 539.21 104.29 538.09 109.94 540.97 C 120.98 546.60 148.49 554.84 178.29 561.43 C 188.62 563.72 196.76 565.91 196.37 566.29 C 195.98 566.68 195.40 566.95 195.08 566.90 C 194.76 566.84 191.35 566.14 187.50 565.35 Z M 758.50 566.28 C 759.05 565.76 764.22 564.32 770.00 563.08 C 800.82 556.51 832.88 547.13 844.23 541.39 C 849.98 538.47 851.70 538.79 846.74 541.85 C 838.15 547.16 813.17 554.94 781.00 562.33 C 761.83 566.73 757.18 567.55 758.50 566.28 Z M 931.00 547.61 C 931.00 547.39 931.70 546.95 932.55 546.62 C 933.44 546.28 933.84 546.44 933.49 547.01 C 932.91 547.96 931.00 548.42 931.00 547.61 Z M 291.76 433.43 C 288.09 431.44 286.00 427.09 286.00 421.45 C 286.00 417.50 286.51 416.29 289.40 413.40 C 291.32 411.48 293.83 409.99 295.15 409.98 C 297.03 409.97 297.20 409.78 296.00 409.00 C 295.17 408.47 289.77 408.02 284.00 408.01 C 263.57 407.98 224.86 404.49 194.00 399.91 C 160.85 394.98 117.79 386.21 125.84 386.03 C 126.58 386.01 131.53 386.87 136.84 387.94 C 180.05 396.61 224.11 402.71 260.00 404.98 C 309.29 408.11 612.88 408.88 675.50 406.05 C 722.25 403.93 768.95 398.06 815.38 388.46 C 828.17 385.81 831.59 385.43 829.00 386.93 C 825.48 388.97 781.36 397.12 750.38 401.44 C 696.57 408.96 679.38 409.46 474.07 409.48 C 378.13 409.49 300.49 409.66 301.53 409.86 C 309.03 411.31 313.31 421.63 309.48 429.03 C 306.63 434.54 297.84 436.73 291.76 433.43 Z M 302.40 432.61 C 306.87 430.74 309.00 427.43 309.00 422.35 C 309.00 410.45 292.89 406.83 288.35 417.71 C 285.31 424.99 290.02 432.66 298.28 433.88 C 298.71 433.95 300.57 433.37 302.40 432.61 Z M 196.00 417.89 C 190.23 417.43 170.20 415.89 151.50 414.48 C 90.95 409.89 66.84 407.32 51.50 403.82 C 42.07 401.67 30.25 396.66 26.00 393.00 C 22.89 390.33 23.64 390.57 33.00 395.25 C 50.72 404.11 76.09 407.30 198.50 416.05 C 216.65 417.35 224.94 418.85 213.50 418.77 C 209.65 418.74 201.77 418.35 196.00 417.89 Z M 739.00 417.90 C 741.47 417.42 761.95 415.66 784.50 413.98 C 832.28 410.43 873.67 406.66 888.81 404.48 C 902.93 402.45 916.06 398.69 923.75 394.47 C 930.36 390.84 932.22 390.99 926.74 394.70 C 915.41 402.39 897.44 406.41 858.50 409.96 C 813.42 414.07 745.88 419.09 738.50 418.88 L 734.50 418.76 L 739.00 417.90 Z M 471.59 337.73 C 466.12 334.61 464.24 331.47 463.75 324.66 C 463.34 319.13 463.46 318.78 465.91 317.84 C 469.01 316.66 480.83 316.44 486.75 317.45 L 491.00 318.18 L 491.00 324.51 C 491.00 329.94 490.61 331.31 488.30 334.06 C 485.56 337.31 480.54 340.01 477.28 339.98 C 476.30 339.97 473.74 338.96 471.59 337.73 Z M 482.00 337.00 C 483.65 337.00 489.00 330.82 489.00 328.92 C 489.00 327.39 488.29 327.00 485.50 327.00 C 483.13 327.00 482.00 326.54 482.00 325.57 C 482.00 324.78 480.99 324.00 479.75 323.82 C 478.30 323.61 477.50 322.81 477.50 321.56 C 477.50 319.83 478.18 319.63 483.50 319.73 L 489.50 319.84 L 483.50 318.84 C 477.49 317.83 468.63 318.37 466.17 319.90 C 465.25 320.46 465.06 321.81 465.54 324.35 C 466.13 327.53 466.59 328.00 469.05 328.00 C 470.61 328.00 472.18 328.48 472.54 329.06 C 472.90 329.65 474.28 330.53 475.60 331.04 C 477.43 331.73 478.00 332.70 478.00 335.08 C 478.00 337.53 478.35 338.08 479.58 337.61 C 480.45 337.27 481.54 337.00 482.00 337.00 Z M 476.50 336.00 C 476.16 335.45 474.76 335.00 473.38 335.00 C 471.97 335.00 471.15 335.44 471.50 336.00 C 471.84 336.55 473.24 337.00 474.62 337.00 C 476.03 337.00 476.85 336.56 476.50 336.00 Z M 474.76 333.31 C 473.81 333.06 472.01 333.05 470.76 333.29 C 469.52 333.53 470.30 333.74 472.50 333.75 C 474.70 333.76 475.72 333.56 474.76 333.31 Z M 470.75 330.31 C 469.79 330.06 468.21 330.06 467.25 330.31 C 466.29 330.56 467.08 330.77 469.00 330.77 C 470.92 330.77 471.71 330.56 470.75 330.31 Z M 489.00 325.00 C 489.00 324.45 487.88 324.00 486.50 324.00 C 485.12 324.00 484.00 324.45 484.00 325.00 C 484.00 325.55 485.12 326.00 486.50 326.00 C 487.88 326.00 489.00 325.55 489.00 325.00 Z M 488.50 322.00 C 488.16 321.45 485.88 321.00 483.44 321.00 C 481.00 321.00 479.00 321.45 479.00 322.00 C 479.00 322.55 481.28 323.00 484.06 323.00 C 487.18 323.00 488.88 322.62 488.50 322.00 Z M 105.16 342.95 C 81.56 338.72 62.85 321.42 57.54 298.91 C 55.34 289.57 55.55 273.10 57.99 263.41 C 64.65 237.00 85.00 215.46 109.00 209.39 C 117.58 207.22 134.02 207.95 142.28 210.87 C 162.63 218.06 176.99 232.37 184.55 253.00 C 186.84 259.25 187.38 262.59 187.76 273.06 C 188.16 283.80 187.91 286.77 186.06 293.52 C 182.74 305.63 177.70 314.38 169.04 323.09 C 155.76 336.44 140.78 342.88 121.50 343.53 C 115.45 343.74 108.10 343.47 105.16 342.95 Z M 128.50 340.99 C 155.17 337.27 176.03 319.68 183.63 294.50 C 185.82 287.24 186.12 266.03 184.13 259.00 C 181.92 251.21 175.31 238.74 169.94 232.25 C 167.10 228.81 164.31 226.00 163.76 226.00 C 163.20 226.00 164.50 227.91 166.65 230.25 C 172.32 236.41 177.46 245.37 180.57 254.51 C 182.94 261.48 183.29 264.03 183.27 274.50 C 183.25 284.72 182.85 287.72 180.59 294.71 C 172.36 320.17 150.14 336.98 122.41 338.71 C 97.68 340.25 73.46 327.10 63.57 306.77 C 61.62 302.77 60.03 300.24 60.02 301.13 C 60.01 302.03 61.81 306.39 64.03 310.82 C 75.23 333.20 100.28 344.92 128.50 340.99 Z M 139.50 332.17 C 181.74 317.61 194.39 264.59 163.57 231.30 C 152.12 218.93 140.44 213.25 124.50 212.29 C 107.67 211.27 94.54 216.52 81.40 229.50 C 67.67 243.08 61.17 257.08 60.27 275.00 C 59.41 292.20 64.12 305.73 74.99 317.31 C 90.94 334.31 116.33 340.15 139.50 332.17 Z M 820.59 342.42 C 795.19 336.74 774.67 316.81 768.60 291.94 C 766.36 282.77 766.53 267.43 768.98 258.00 C 774.72 235.85 790.68 218.66 812.72 210.87 C 820.97 207.96 837.42 207.22 846.00 209.38 C 865.35 214.25 882.65 229.21 891.96 249.11 C 902.07 270.71 901.65 297.71 890.93 315.51 C 883.66 327.57 869.83 337.73 855.50 341.56 C 846.77 343.89 829.09 344.32 820.59 342.42 Z M 853.10 339.93 C 868.49 336.76 883.18 325.88 890.14 312.50 C 895.06 303.03 896.06 298.73 891.31 307.45 C 875.63 336.26 837.62 347.22 806.43 331.93 C 791.46 324.58 780.49 311.86 774.68 295.12 C 772.02 287.44 771.70 285.24 771.74 275.00 C 771.77 266.01 772.26 261.97 773.99 256.50 C 777.36 245.82 782.60 236.68 789.89 228.78 C 793.80 224.53 795.20 222.56 793.31 223.95 C 785.58 229.62 776.03 244.12 771.87 256.50 C 768.62 266.19 768.56 285.07 771.76 295.50 C 779.04 319.21 799.98 337.03 825.32 341.06 C 831.52 342.04 845.61 341.47 853.10 339.93 Z M 852.95 333.53 C 873.62 328.01 890.12 310.61 894.07 290.19 C 896.86 275.72 893.58 257.40 885.82 244.17 C 880.44 234.99 866.85 222.11 858.00 217.80 C 836.96 207.55 812.73 211.23 795.27 227.32 C 777.34 243.84 770.08 270.83 777.41 293.66 C 782.79 310.42 795.42 324.23 811.33 330.73 C 824.10 335.94 839.94 337.01 852.95 333.53 Z M 294.44 271.90 C 294.13 271.40 294.33 271.00 294.87 271.00 C 295.42 271.00 298.04 269.65 300.70 268.00 C 305.55 264.98 312.07 262.56 311.92 263.82 C 311.79 265.06 295.00 272.81 294.44 271.90 Z M 654.57 269.87 C 651.85 268.16 648.06 266.22 646.13 265.56 C 644.21 264.89 643.05 264.09 643.57 263.77 C 644.35 263.29 652.66 266.85 659.22 270.49 C 661.01 271.48 661.65 273.02 660.25 272.98 C 659.84 272.97 657.28 271.57 654.57 269.87 Z M 187.09 174.09 C 185.01 172.01 184.66 169.84 184.98 161.00 C 185.34 151.14 194.23 130.09 210.95 99.50 C 235.37 54.85 238.68 51.14 257.83 47.01 C 283.84 41.40 349.55 34.95 397.25 33.32 C 418.65 32.59 418.16 32.44 422.66 41.32 C 426.15 48.20 428.64 49.00 446.52 49.00 L 461.10 49.00 L 464.70 52.50 C 468.30 56.00 468.32 56.00 477.71 56.00 C 487.04 56.00 487.13 55.98 490.08 52.75 L 493.04 49.50 L 510.12 49.00 C 529.43 48.43 527.35 49.34 534.31 38.50 L 537.52 33.50 L 556.51 33.64 C 594.87 33.91 669.75 41.00 696.94 46.93 C 716.96 51.30 720.60 55.58 748.08 107.10 C 764.53 137.94 770.02 152.02 770.32 164.14 C 770.47 170.52 770.17 172.15 768.52 173.98 C 766.37 176.36 764.50 176.36 741.50 173.98 C 695.58 169.23 558.59 164.03 479.00 164.02 C 399.23 164.01 270.93 168.83 214.00 173.98 C 187.46 176.38 189.37 176.37 187.09 174.09 Z M 218.00 171.53 C 254.23 168.73 294.88 166.58 361.50 163.95 C 405.34 162.21 507.97 161.66 557.00 162.90 C 628.05 164.68 725.49 169.70 755.35 173.11 C 767.89 174.54 768.59 174.05 768.29 164.05 C 768.01 154.71 764.35 144.13 754.45 124.04 C 736.03 86.66 720.51 60.80 713.21 55.29 C 707.81 51.22 702.71 49.71 683.68 46.53 C 647.06 40.41 545.90 32.48 540.14 35.28 C 538.75 35.95 536.11 39.09 534.27 42.25 C 529.47 50.48 528.01 51.00 509.92 51.00 L 494.74 51.00 L 490.87 54.50 C 487.01 57.98 486.95 58.00 477.50 58.00 C 468.05 58.00 467.99 57.98 464.13 54.50 L 460.26 51.00 L 445.60 51.00 C 427.34 51.00 425.32 50.31 420.92 42.51 C 415.85 33.53 417.25 33.83 387.96 35.51 C 324.65 39.16 269.99 45.17 251.64 50.50 C 239.75 53.96 235.71 58.93 216.26 93.97 C 200.90 121.67 190.23 144.53 187.97 154.62 C 186.48 161.27 186.55 170.75 188.10 172.62 C 189.10 173.82 190.51 174.06 193.96 173.62 C 196.46 173.30 207.27 172.36 218.00 171.53 Z M 362.50 557.00 C 290.72 555.80 263.29 553.91 247.00 549.04 C 243.43 547.97 239.60 546.38 238.50 545.51 C 236.65 544.06 236.77 544.04 240.04 545.33 L 243.57 546.72 L 243.62 541.61 C 243.79 525.82 247.62 485.06 249.08 483.55 C 249.59 483.03 250.00 482.30 250.00 481.93 C 250.00 481.13 242.20 482.46 241.23 483.43 C 240.85 483.81 239.61 497.80 238.48 514.51 C 236.74 540.02 236.13 545.20 234.67 546.81 C 233.72 547.86 229.60 549.72 225.52 550.93 C 219.72 552.65 218.24 553.46 218.71 554.68 C 219.98 558.00 215.26 554.08 213.49 550.35 C 211.20 545.52 211.92 533.94 215.46 518.50 C 222.39 488.27 226.87 482.15 244.50 478.82 C 254.63 476.91 697.78 476.87 709.00 478.78 C 718.78 480.45 726.35 484.15 729.54 488.83 C 734.43 495.99 741.59 523.27 742.72 539.05 C 743.30 547.19 742.24 550.66 738.00 554.50 C 735.92 556.38 735.82 556.39 736.15 554.63 C 736.43 553.12 735.47 552.50 731.13 551.37 C 728.18 550.61 724.27 549.27 722.44 548.40 C 719.45 546.99 719.07 546.32 718.61 541.67 C 717.85 534.09 716.09 509.27 715.34 495.71 C 714.98 489.23 714.23 483.64 713.67 483.30 C 713.11 482.95 710.91 482.35 708.77 481.96 C 705.42 481.34 704.97 481.47 705.56 482.87 C 707.55 487.68 710.64 518.59 711.23 539.67 C 711.42 546.29 711.57 546.76 713.27 545.85 C 714.28 545.31 715.61 545.04 716.21 545.24 C 718.28 545.93 705.68 550.05 697.09 551.50 C 682.96 553.88 668.97 554.97 638.97 556.02 C 599.76 557.39 423.36 558.01 362.50 557.00 Z M 590.54 553.99 C 647.60 552.86 674.32 551.65 689.35 549.54 C 700.60 547.97 707.84 546.49 708.74 545.59 C 709.37 544.97 707.52 516.86 705.60 497.90 C 704.01 482.16 703.51 481.49 692.83 480.66 C 681.89 479.81 271.61 479.80 261.54 480.66 C 251.09 481.54 250.64 482.30 249.05 501.81 C 248.40 509.89 247.44 520.94 246.93 526.36 C 246.42 531.78 246.00 538.38 246.00 541.04 L 246.00 545.86 L 253.25 547.41 C 264.42 549.79 273.76 550.81 295.50 552.02 C 341.66 554.59 505.40 555.68 590.54 553.99 Z M 226.28 548.48 C 229.91 547.45 232.56 546.03 233.41 544.67 C 234.27 543.28 235.19 535.86 235.96 524.00 C 236.62 513.83 237.55 500.78 238.01 495.01 C 238.48 489.25 238.68 484.35 238.46 484.13 C 237.52 483.19 231.76 486.51 229.11 489.53 C 223.96 495.39 215.01 528.83 215.00 542.20 C 215.00 547.13 216.89 551.16 218.92 550.57 C 219.79 550.32 223.10 549.38 226.28 548.48 Z M 739.70 539.50 C 738.40 522.62 731.06 495.93 726.07 489.89 C 723.42 486.69 717.50 483.08 716.60 484.12 C 716.04 484.77 720.53 544.87 721.20 545.53 C 721.54 545.88 725.13 547.23 729.16 548.53 L 736.50 550.90 L 738.37 548.70 C 739.95 546.85 740.16 545.39 739.70 539.50 Z M 476.50 328.94 C 474.85 328.55 474.06 328.18 474.75 328.12 C 475.44 328.05 476.01 327.21 476.03 326.25 C 476.06 324.67 476.18 324.66 477.28 326.09 C 477.95 326.96 479.15 327.89 479.95 328.15 C 482.52 329.00 479.60 329.67 476.50 328.94 Z M 104.00 329.39 C 96.25 327.32 85.94 320.79 79.60 313.93 C 70.36 303.95 66.03 292.56 66.01 278.14 C 65.99 262.18 72.20 247.19 83.56 235.78 C 94.41 224.87 106.29 219.78 121.00 219.74 C 135.63 219.70 148.80 225.62 159.31 236.97 C 176.31 255.33 180.30 279.53 169.85 301.00 C 163.67 313.71 148.67 325.87 134.50 329.64 C 127.93 331.39 110.94 331.25 104.00 329.39 Z M 133.41 328.02 C 143.92 325.33 150.29 321.70 158.00 314.00 C 171.17 300.83 176.54 283.47 172.91 265.80 C 170.92 256.11 164.39 244.19 157.10 236.92 C 128.66 208.55 83.55 220.48 70.59 259.81 C 65.50 275.25 66.21 287.42 73.02 301.60 C 83.39 323.19 108.82 334.31 133.41 328.02 Z M 827.17 330.89 C 818.61 329.83 814.68 328.48 806.90 323.94 C 779.49 307.94 771.37 272.40 788.91 245.26 C 814.08 206.32 868.64 213.23 885.61 257.50 C 887.74 263.08 888.38 266.75 888.76 275.58 C 889.52 293.29 885.54 303.77 873.62 315.50 C 860.89 328.02 845.42 333.14 827.17 330.89 Z M 846.50 328.49 C 866.54 324.26 881.86 309.43 886.49 289.76 C 889.41 277.40 887.59 264.69 881.01 251.33 C 864.72 218.28 823.49 211.12 797.97 236.90 C 790.35 244.61 785.73 252.83 782.98 263.60 C 778.16 282.41 783.12 300.25 796.98 314.00 C 804.66 321.61 811.10 325.33 821.19 327.98 C 830.06 330.30 837.23 330.44 846.50 328.49 Z M 112.50 326.86 C 100.62 325.42 91.97 320.85 82.61 311.03 C 76.10 304.20 72.72 297.59 70.37 287.06 C 68.94 280.65 68.88 278.49 69.94 271.56 C 73.73 246.54 89.10 229.02 111.36 224.35 C 141.00 218.11 169.44 241.27 171.69 273.47 C 173.23 295.39 159.85 315.99 138.92 323.94 C 133.97 325.82 129.69 326.65 121.50 327.34 C 119.85 327.47 115.80 327.26 112.50 326.86 Z M 121.94 319.25 C 122.57 315.54 123.32 311.71 123.61 310.75 C 123.90 309.79 123.70 309.00 123.18 309.00 C 122.65 309.00 121.49 312.21 120.61 316.12 C 118.77 324.28 118.64 326.00 119.90 326.00 C 120.39 326.00 121.31 322.96 121.94 319.25 Z M 125.42 321.71 C 126.80 312.74 127.04 309.00 126.23 309.00 C 125.34 309.00 123.00 319.81 123.00 323.92 C 123.00 327.14 124.84 325.46 125.42 321.71 Z M 115.07 317.75 C 116.25 313.76 117.42 310.16 117.67 309.75 C 117.91 309.34 117.68 309.00 117.14 309.00 C 116.60 309.00 115.16 312.04 113.94 315.75 C 112.71 319.46 111.50 323.06 111.25 323.75 C 110.99 324.44 111.27 325.00 111.85 325.00 C 112.44 325.00 113.88 321.74 115.07 317.75 Z M 118.76 317.00 C 119.87 312.60 120.46 309.00 120.08 309.00 C 119.37 309.00 115.00 321.74 115.00 323.82 C 115.00 324.47 115.39 325.00 115.88 325.00 C 116.36 325.00 117.66 321.40 118.76 317.00 Z M 129.41 317.39 C 130.03 310.61 129.76 307.83 128.62 309.08 C 127.69 310.11 126.90 325.00 127.78 325.00 C 128.30 325.00 129.03 321.57 129.41 317.39 Z M 108.45 316.94 C 109.98 313.06 110.96 309.62 110.63 309.30 C 109.81 308.48 103.87 321.98 104.56 323.09 C 105.44 324.53 105.53 324.38 108.45 316.94 Z M 112.16 316.50 C 113.63 312.37 114.47 309.00 114.03 309.00 C 113.60 309.00 111.87 312.38 110.19 316.50 C 108.28 321.20 107.58 324.00 108.32 324.00 C 108.97 323.99 110.70 320.62 112.16 316.50 Z M 133.00 316.50 C 133.00 312.17 132.58 309.00 132.00 309.00 C 131.42 309.00 131.00 312.17 131.00 316.50 C 131.00 320.83 131.42 324.00 132.00 324.00 C 132.58 324.00 133.00 320.83 133.00 316.50 Z M 136.37 315.75 C 136.01 311.76 135.56 308.31 135.36 308.08 C 135.16 307.85 135.00 311.12 135.00 315.33 C 135.00 319.81 135.42 323.00 136.01 323.00 C 136.65 323.00 136.78 320.38 136.37 315.75 Z M 105.72 315.00 C 109.68 306.11 108.23 305.76 104.09 314.61 C 100.68 321.90 100.65 322.00 101.81 322.00 C 102.25 322.00 104.01 318.85 105.72 315.00 Z M 139.93 316.25 C 139.82 306.98 138.15 305.19 138.07 314.25 C 138.03 318.80 138.41 322.00 139.00 322.00 C 139.56 322.00 139.97 319.46 139.93 316.25 Z M 102.04 314.92 C 106.24 306.60 105.24 305.09 100.82 313.07 C 97.70 318.71 97.04 321.00 98.54 321.00 C 98.78 321.00 100.35 318.26 102.04 314.92 Z M 143.38 314.68 C 143.01 311.83 142.35 308.60 141.92 307.50 C 141.20 305.69 141.12 305.74 141.07 308.00 C 140.96 313.02 142.30 320.94 143.16 320.40 C 143.65 320.10 143.75 317.52 143.38 314.68 Z M 98.90 313.52 C 102.04 307.96 102.64 306.00 101.21 306.00 C 100.34 306.00 94.00 316.63 94.00 318.09 C 94.00 320.45 96.09 318.50 98.90 313.52 Z M 146.96 317.25 C 146.81 314.66 144.19 304.89 144.10 306.61 C 143.92 310.47 145.26 318.00 146.14 318.00 C 146.61 318.00 146.98 317.66 146.96 317.25 Z M 95.79 311.33 C 97.74 308.00 98.72 305.32 98.19 304.79 C 97.66 304.26 95.84 306.35 93.74 309.87 C 90.56 315.21 90.09 317.04 91.92 316.98 C 92.24 316.97 93.98 314.42 95.79 311.33 Z M 148.57 311.80 C 148.19 308.94 147.43 305.91 146.87 305.05 C 146.14 303.93 146.04 304.47 146.50 307.00 C 146.84 308.92 147.38 311.96 147.70 313.75 C 148.61 319.03 149.32 317.46 148.57 311.80 Z M 165.15 297.27 C 168.31 290.76 169.27 287.52 169.70 281.74 C 171.35 259.97 160.85 240.48 142.20 230.68 C 113.40 215.54 79.76 233.33 72.51 267.53 C 71.70 271.36 71.03 276.21 71.02 278.30 C 70.99 284.96 74.00 295.62 77.62 301.66 C 81.38 307.91 86.72 314.00 88.46 314.00 C 89.04 314.00 90.94 311.64 92.67 308.76 L 95.83 303.52 L 90.86 298.26 C 82.96 289.90 81.50 285.74 81.50 271.50 C 81.50 255.50 83.93 247.94 91.50 240.37 C 98.62 233.25 107.06 230.55 122.00 230.60 C 134.32 230.65 142.02 232.61 149.50 237.59 C 154.87 241.17 157.51 244.53 161.58 252.98 C 168.86 268.06 165.58 286.91 153.52 299.32 C 148.70 304.28 148.41 305.32 150.09 311.38 L 151.17 315.26 L 156.15 310.38 C 159.39 307.22 162.55 302.61 165.15 297.27 Z M 144.05 303.30 C 147.84 301.43 151.56 298.72 152.97 296.80 L 155.39 293.50 L 151.50 296.89 C 149.35 298.76 145.75 301.11 143.50 302.11 C 133.36 306.59 114.15 306.90 103.06 302.75 C 95.42 299.89 87.91 292.69 87.67 287.99 C 87.50 284.59 87.60 284.50 94.00 282.35 C 101.89 279.71 100.53 279.27 92.34 281.82 C 86.52 283.63 86.50 283.63 86.39 281.57 C 86.34 280.43 85.94 276.95 85.52 273.84 C 85.09 270.73 85.06 265.70 85.44 262.67 L 86.12 257.15 L 90.31 259.05 C 92.62 260.10 95.40 260.97 96.50 260.98 C 98.31 261.00 98.50 261.68 98.53 268.25 C 98.55 273.75 99.09 276.51 100.77 279.68 C 104.36 286.50 105.26 286.80 122.46 286.95 L 137.74 287.08 L 141.12 281.81 C 144.09 277.18 144.50 275.76 144.47 270.02 C 144.43 263.23 142.77 258.70 138.63 254.15 L 136.50 251.81 L 141.93 246.81 C 144.91 244.06 148.28 241.43 149.43 240.97 C 151.01 240.32 151.11 240.11 149.83 240.06 C 148.91 240.03 145.19 242.54 141.55 245.64 L 134.95 251.28 L 121.44 251.22 L 107.92 251.16 L 101.40 245.06 C 97.82 241.70 94.42 239.24 93.86 239.59 C 93.29 239.94 94.10 241.01 95.67 241.99 C 97.23 242.96 100.25 245.59 102.39 247.82 L 106.28 251.87 L 103.89 254.80 C 102.58 256.41 101.05 258.45 100.50 259.33 C 99.59 260.77 98.99 260.74 94.06 258.97 C 88.15 256.85 87.08 255.79 86.94 252.00 C 86.87 249.89 86.61 250.13 85.27 253.50 C 84.12 256.38 83.65 261.14 83.59 270.50 C 83.51 282.07 83.75 284.05 85.80 288.50 C 89.55 296.63 95.28 301.78 104.27 305.09 C 108.68 306.72 111.71 306.98 123.53 306.76 C 137.04 306.51 137.79 306.38 144.05 303.30 Z M 131.85 303.36 C 135.23 303.00 138.00 302.30 138.00 301.79 C 138.00 301.28 136.83 299.34 135.41 297.47 L 132.81 294.06 L 121.66 293.78 L 110.50 293.50 L 107.68 297.34 C 106.12 299.46 105.05 301.38 105.29 301.62 C 107.13 303.46 121.74 304.41 131.85 303.36 Z M 141.31 301.36 C 141.66 301.01 140.12 298.53 137.88 295.86 L 133.81 291.00 L 121.02 291.00 C 108.87 291.00 108.15 291.11 106.72 293.25 C 105.89 294.49 104.27 296.49 103.11 297.70 C 101.79 299.08 101.41 300.14 102.08 300.55 C 102.66 300.91 103.23 301.04 103.35 300.85 C 103.47 300.66 104.86 298.59 106.42 296.25 L 109.27 292.00 L 121.05 292.00 L 132.83 292.00 L 135.92 295.89 C 137.61 298.04 139.00 300.29 139.00 300.89 C 139.00 302.11 140.30 302.37 141.31 301.36 Z M 144.25 298.20 C 143.29 297.21 140.92 294.63 138.98 292.45 L 135.46 288.50 L 121.09 288.51 L 106.71 288.53 L 103.28 293.01 C 100.24 296.98 96.60 300.07 98.41 297.14 C 98.86 296.41 98.52 296.25 97.44 296.66 C 95.92 297.24 95.93 297.38 97.56 298.29 C 99.02 299.11 100.03 298.49 103.14 294.90 C 105.23 292.48 106.95 290.27 106.97 290.00 C 106.99 289.73 113.24 289.57 120.86 289.65 L 134.73 289.80 L 139.50 294.90 C 142.13 297.70 144.66 300.00 145.14 300.00 C 145.61 300.00 145.21 299.19 144.25 298.20 Z M 153.74 292.07 C 155.01 290.18 155.89 288.16 155.70 287.57 C 155.20 286.02 150.34 283.86 146.13 283.29 C 143.00 282.88 142.20 283.21 140.35 285.73 L 138.20 288.65 L 141.71 292.38 C 146.31 297.25 150.33 297.15 153.74 292.07 Z M 101.99 291.36 L 105.18 287.73 L 102.65 285.19 C 100.18 282.72 99.96 282.69 94.45 283.92 C 88.84 285.18 88.79 285.22 89.41 288.28 C 90.91 295.78 96.84 297.23 101.99 291.36 Z M 161.16 283.06 C 164.19 275.27 164.13 264.56 161.00 256.50 C 158.77 250.77 158.63 250.62 157.78 253.17 C 157.10 255.19 155.40 256.44 150.69 258.37 C 143.38 261.36 144.63 261.89 152.20 259.01 C 155.08 257.92 157.78 257.38 158.21 257.81 C 159.76 259.36 160.25 270.86 159.04 277.30 L 157.81 283.80 L 151.22 281.92 C 147.60 280.88 144.44 280.23 144.21 280.46 C 143.98 280.69 146.42 281.63 149.64 282.54 C 156.63 284.52 158.25 286.14 156.93 289.85 C 155.07 295.07 158.84 289.02 161.16 283.06 Z M 93.61 279.87 C 97.18 278.97 97.97 278.40 97.40 277.12 C 97.01 276.23 96.63 272.62 96.55 269.10 L 96.40 262.69 L 91.95 261.36 C 89.50 260.63 87.39 260.02 87.25 260.02 C 87.11 260.01 87.00 263.32 87.00 267.38 C 87.00 274.53 87.80 281.00 88.68 281.00 C 88.92 281.00 91.14 280.49 93.61 279.87 Z M 157.38 277.88 C 158.21 273.72 158.18 259.00 157.34 259.00 C 156.97 259.00 154.28 259.76 151.35 260.68 L 146.02 262.36 L 146.23 268.43 C 146.34 271.77 146.11 275.43 145.71 276.57 C 145.09 278.34 145.53 278.80 148.74 279.69 C 155.47 281.58 156.69 281.32 157.38 277.88 Z M 101.54 255.35 L 104.32 251.71 L 99.19 246.81 C 94.86 242.67 93.74 242.07 92.10 242.94 C 89.73 244.22 87.60 250.26 88.40 253.46 C 88.91 255.48 93.26 257.90 98.13 258.87 C 98.48 258.94 100.01 257.36 101.54 255.35 Z M 154.55 254.96 C 156.46 253.37 156.40 248.02 154.44 245.22 C 152.12 241.91 149.00 242.51 143.54 247.32 L 138.63 251.64 L 141.48 255.22 L 144.34 258.80 L 148.72 257.48 C 151.12 256.76 153.75 255.62 154.55 254.96 Z M 141.18 244.08 C 144.39 241.20 146.80 238.49 146.53 238.05 C 146.26 237.61 143.44 239.67 140.27 242.62 C 137.10 245.57 133.90 247.76 133.17 247.49 C 130.17 246.39 118.20 245.95 114.00 246.79 L 109.50 247.69 L 103.78 242.15 C 96.27 234.89 94.93 236.35 102.28 243.78 L 107.94 249.50 L 121.64 249.41 L 135.34 249.33 L 141.18 244.08 Z M 139.02 241.86 C 144.09 237.79 143.33 237.26 130.72 236.07 C 122.04 235.25 108.78 235.98 103.80 237.56 C 101.93 238.16 102.04 238.46 105.35 241.85 L 108.92 245.50 L 121.95 245.31 L 134.98 245.11 L 139.02 241.86 Z M 108.00 235.06 C 114.64 233.57 131.66 233.80 137.95 235.48 C 144.84 237.31 145.62 236.76 139.30 234.52 C 131.96 231.91 117.61 231.39 109.32 233.42 C 105.54 234.35 101.78 235.56 100.97 236.12 C 99.81 236.92 99.91 237.02 101.50 236.60 C 102.60 236.31 105.53 235.62 108.00 235.06 Z M 817.98 324.72 C 781.42 312.26 771.41 265.74 799.30 237.94 C 810.21 227.06 826.38 221.61 840.99 223.88 C 864.28 227.50 880.66 244.97 884.98 270.79 C 888.95 294.56 873.36 318.27 849.07 325.40 C 840.84 327.82 826.12 327.50 817.98 324.72 Z M 832.00 324.83 C 832.00 321.56 829.64 310.37 828.77 309.50 C 827.81 308.54 828.00 311.46 829.61 322.25 C 830.12 325.64 832.00 327.67 832.00 324.83 Z M 836.00 324.62 C 836.00 321.33 832.69 309.00 831.81 309.00 C 831.28 309.00 831.09 310.24 831.39 311.75 C 831.69 313.26 832.21 316.30 832.55 318.50 C 833.46 324.32 834.02 326.00 835.07 326.00 C 835.58 326.00 836.00 325.38 836.00 324.62 Z M 837.82 317.00 C 835.69 309.20 835.33 308.34 834.51 309.16 C 834.24 309.43 834.63 312.09 835.38 315.07 C 836.14 318.06 837.06 321.80 837.43 323.39 C 837.83 325.08 838.48 325.91 838.99 325.39 C 839.50 324.88 839.01 321.33 837.82 317.00 Z M 827.44 317.75 C 826.82 311.07 825.00 305.79 825.00 310.65 C 825.00 316.00 826.38 325.00 827.20 325.00 C 827.74 325.00 827.84 321.98 827.44 317.75 Z M 843.53 323.25 C 843.15 322.29 841.92 318.69 840.78 315.25 C 838.01 306.85 836.64 307.25 839.07 315.75 C 841.61 324.68 841.75 325.00 843.08 325.00 C 843.75 325.00 843.94 324.29 843.53 323.25 Z M 824.00 316.50 C 824.00 312.17 823.58 309.00 823.00 309.00 C 822.42 309.00 822.00 312.17 822.00 316.50 C 822.00 320.83 822.42 324.00 823.00 324.00 C 823.58 324.00 824.00 320.83 824.00 316.50 Z M 847.00 323.56 C 847.00 321.97 841.61 309.00 840.95 309.00 C 840.50 309.00 841.27 312.38 842.66 316.50 C 844.05 320.62 845.59 324.00 846.09 324.00 C 846.59 324.00 847.00 323.80 847.00 323.56 Z M 848.38 317.21 C 846.97 314.07 845.58 310.94 845.30 310.25 C 845.02 309.56 844.39 309.00 843.91 309.00 C 843.42 309.00 843.97 311.36 845.12 314.25 C 846.26 317.14 847.61 320.54 848.10 321.81 C 848.59 323.08 849.43 323.85 849.97 323.52 C 850.54 323.17 849.89 320.58 848.38 317.21 Z M 821.00 315.50 C 821.00 311.17 820.58 308.00 820.00 308.00 C 819.42 308.00 819.00 311.17 819.00 315.50 C 819.00 319.83 819.42 323.00 820.00 323.00 C 820.58 323.00 821.00 319.83 821.00 315.50 Z M 817.54 315.42 C 818.02 311.01 817.88 308.48 817.12 307.72 C 816.29 306.89 816.00 307.39 816.00 309.66 C 816.00 311.34 815.71 314.81 815.36 317.36 C 814.95 320.35 815.10 322.00 815.78 322.00 C 816.37 322.00 817.16 319.04 817.54 315.42 Z M 854.00 320.97 C 854.00 319.15 848.00 308.00 847.02 308.00 C 846.50 308.00 847.00 310.14 848.13 312.75 C 849.26 315.36 850.59 318.51 851.07 319.75 C 851.96 322.02 854.00 322.87 854.00 320.97 Z M 814.34 314.31 C 814.90 308.22 814.67 305.97 813.60 307.08 C 812.63 308.09 811.83 321.00 812.74 321.00 C 813.27 321.00 813.99 317.99 814.34 314.31 Z M 855.57 315.20 C 852.62 309.44 850.08 306.04 850.03 307.78 C 849.97 310.07 856.04 321.09 857.02 320.49 C 857.57 320.15 856.95 317.89 855.57 315.20 Z M 811.00 315.62 C 811.00 313.77 811.28 310.84 811.62 309.12 C 811.97 307.41 811.83 306.00 811.32 306.00 C 810.34 306.00 808.04 317.71 808.86 318.53 C 810.15 319.82 811.00 318.66 811.00 315.62 Z M 861.00 317.80 C 861.00 316.18 854.78 306.00 853.79 306.00 C 852.58 306.00 852.77 306.60 856.01 313.03 C 858.81 318.56 861.00 320.66 861.00 317.80 Z M 808.43 309.00 C 808.85 305.46 808.75 304.03 808.15 305.00 C 807.64 305.83 806.93 308.98 806.57 312.00 C 806.15 315.54 806.25 316.97 806.85 316.00 C 807.36 315.17 808.07 312.02 808.43 309.00 Z M 862.99 312.66 C 861.84 310.92 860.39 308.49 859.79 307.25 C 858.85 305.34 856.00 304.01 856.00 305.48 C 856.00 307.09 863.28 316.95 864.09 316.44 C 864.69 316.07 864.25 314.56 862.99 312.66 Z M 805.55 309.47 L 806.24 303.94 L 801.31 298.72 C 787.46 284.06 785.83 263.67 797.08 245.93 C 800.87 239.96 806.88 235.73 815.29 233.14 C 828.76 228.98 841.64 229.30 854.60 234.13 C 867.63 238.99 874.76 253.77 873.79 273.93 C 873.23 285.63 870.46 292.59 863.69 299.37 L 859.21 303.84 L 862.63 308.92 C 864.51 311.71 866.43 314.00 866.90 314.00 C 868.76 314.00 875.87 305.00 878.95 298.75 C 883.70 289.10 884.85 279.74 882.66 268.58 C 880.21 256.14 875.99 247.84 868.08 239.92 C 848.41 220.24 820.14 220.36 800.17 240.21 C 781.01 259.25 780.08 290.45 798.10 309.51 C 800.95 312.53 803.64 315.00 804.07 315.00 C 804.50 315.00 805.17 312.51 805.55 309.47 Z M 853.62 304.13 C 856.43 302.88 860.23 300.32 862.06 298.43 C 866.30 294.06 865.27 294.05 859.56 298.40 C 851.38 304.65 838.09 307.11 823.50 305.08 C 813.80 303.73 806.42 300.31 801.53 294.90 C 798.67 291.74 797.95 290.18 798.19 287.71 C 798.48 284.76 798.93 284.42 804.81 282.67 C 812.60 280.35 812.46 279.47 804.63 281.51 C 801.48 282.33 798.54 283.00 798.09 283.00 C 796.43 283.00 794.72 271.05 795.41 264.28 C 795.79 260.59 796.23 257.44 796.39 257.28 C 796.54 257.12 799.29 257.90 802.49 259.00 C 810.66 261.81 811.73 261.41 804.24 258.34 C 799.41 256.36 797.84 255.20 797.35 253.24 L 796.71 250.71 L 795.29 253.42 C 794.50 254.92 793.23 259.18 792.46 262.89 C 790.71 271.26 791.73 278.69 795.81 287.39 C 799.46 295.16 803.17 299.53 808.38 302.21 C 816.56 306.42 819.89 306.99 834.50 306.68 C 846.45 306.43 849.25 306.06 853.62 304.13 Z M 848.37 302.32 C 849.59 301.63 849.45 300.86 847.46 297.50 L 845.10 293.50 L 833.59 294.00 L 822.07 294.50 L 819.54 297.94 C 818.14 299.84 817.00 301.73 817.00 302.14 C 817.00 303.92 845.25 304.09 848.37 302.32 Z M 818.50 297.20 L 821.50 292.50 L 833.69 292.22 L 845.88 291.94 L 848.54 296.47 C 850.00 298.96 851.60 301.00 852.10 301.00 C 853.61 301.00 853.14 299.89 849.75 295.38 L 846.50 291.06 L 833.96 291.03 L 821.42 291.00 L 816.61 295.88 C 813.31 299.24 812.23 300.94 813.15 301.31 C 815.30 302.16 815.35 302.12 818.50 297.20 Z M 815.47 295.06 L 820.50 290.12 L 833.84 289.90 L 847.18 289.68 L 851.31 294.79 C 856.70 301.47 857.35 300.70 852.14 293.80 L 848.09 288.44 L 833.87 288.53 L 819.64 288.62 L 814.99 293.81 C 812.43 296.66 809.98 299.00 809.55 299.00 C 809.11 299.00 809.26 298.39 809.89 297.64 C 810.80 296.53 810.54 296.37 808.48 296.76 C 806.13 297.21 806.08 297.34 807.72 298.59 C 808.70 299.33 809.71 299.95 809.97 299.97 C 810.23 299.99 812.70 297.78 815.47 295.06 Z M 859.00 297.61 C 859.00 297.39 858.30 296.95 857.45 296.62 C 856.56 296.28 856.16 296.44 856.51 297.01 C 857.09 297.96 859.00 298.42 859.00 297.61 Z M 813.57 292.35 L 816.91 288.71 L 814.70 285.84 C 812.84 283.42 811.93 283.04 808.87 283.38 C 802.96 284.03 799.46 286.20 799.78 289.01 C 800.18 292.58 803.86 296.00 807.29 296.00 C 809.40 296.00 811.18 294.97 813.57 292.35 Z M 863.93 292.37 C 865.07 290.92 866.00 288.70 866.00 287.44 C 866.00 285.47 865.21 284.97 860.51 283.91 C 855.17 282.72 854.96 282.76 852.63 285.26 L 850.24 287.84 L 853.19 291.42 C 856.90 295.91 860.86 296.26 863.93 292.37 Z M 869.13 288.43 C 872.96 279.79 873.23 265.90 869.82 254.00 L 868.53 249.50 L 868.02 252.99 C 867.55 256.14 866.95 256.71 862.00 258.71 C 858.97 259.94 857.40 260.94 858.50 260.95 C 859.60 260.95 862.36 260.11 864.64 259.07 L 868.79 257.19 L 869.39 260.22 C 870.54 265.95 869.49 280.84 867.83 282.50 C 867.60 282.74 864.97 282.28 862.00 281.50 C 859.03 280.72 856.40 280.27 856.15 280.51 C 855.69 280.98 855.92 281.07 862.99 283.17 C 868.08 284.68 868.91 286.46 866.64 291.02 C 865.81 292.68 865.61 293.74 866.18 293.39 C 866.76 293.03 868.08 290.80 869.13 288.43 Z M 851.92 283.29 C 859.05 274.64 858.56 262.77 850.70 254.23 L 848.61 251.96 L 853.56 246.94 C 856.28 244.18 859.56 241.65 860.85 241.33 C 862.52 240.90 862.82 240.51 861.90 239.94 C 861.05 239.41 858.30 241.19 853.80 245.18 L 846.98 251.22 L 833.33 251.16 L 819.67 251.09 L 813.25 245.55 C 809.72 242.50 806.31 240.02 805.67 240.05 C 805.03 240.08 805.62 240.87 807.00 241.79 C 808.38 242.72 811.52 245.37 813.99 247.67 L 818.49 251.85 L 816.36 254.18 C 812.35 258.56 810.65 263.23 810.58 270.00 C 810.52 276.60 811.59 279.35 816.28 284.66 C 818.06 286.69 819.14 286.83 833.49 286.95 L 848.80 287.07 L 851.92 283.29 Z M 804.90 279.83 C 809.68 278.73 809.92 278.53 809.23 276.08 C 808.83 274.66 808.61 271.02 808.74 268.00 L 808.97 262.50 L 803.54 260.90 C 797.13 259.01 796.99 259.15 797.01 267.83 C 797.02 274.78 797.99 281.00 799.05 281.00 C 799.49 281.00 802.12 280.48 804.90 279.83 Z M 867.38 277.88 C 867.72 276.16 868.00 271.19 868.00 266.84 C 868.00 259.01 867.98 258.94 865.81 260.10 C 864.60 260.75 862.52 261.57 861.17 261.93 C 858.94 262.53 858.71 263.12 858.52 269.04 C 858.40 272.59 857.98 276.24 857.59 277.14 C 857.03 278.42 857.70 278.99 860.69 279.78 C 866.45 281.31 866.70 281.24 867.38 277.88 Z M 815.96 251.80 C 816.02 250.80 807.31 243.66 805.00 242.80 C 800.75 241.23 796.77 251.91 800.47 254.97 C 801.28 255.64 803.86 256.77 806.22 257.47 C 810.43 258.73 810.54 258.70 813.21 255.63 C 814.70 253.91 815.94 252.18 815.96 251.80 Z M 861.33 257.40 C 866.73 255.56 867.87 253.16 866.02 247.55 C 864.00 241.44 861.90 241.30 855.89 246.83 L 850.64 251.66 L 853.44 255.33 C 854.98 257.35 856.33 259.00 856.44 259.00 C 856.55 259.00 858.75 258.28 861.33 257.40 Z M 853.05 243.96 C 857.33 240.25 858.80 238.40 858.04 237.64 C 857.29 236.89 855.30 238.20 851.24 242.11 L 845.50 247.64 L 839.08 246.71 C 835.02 246.12 830.42 246.14 826.59 246.76 L 820.53 247.73 L 814.76 242.71 C 811.58 239.95 808.74 237.93 808.45 238.22 C 808.15 238.52 810.62 241.18 813.94 244.13 L 819.97 249.50 L 833.48 249.35 L 846.99 249.21 L 853.05 243.96 Z M 849.82 241.65 C 851.79 239.68 853.16 237.82 852.86 237.52 C 851.41 236.07 831.06 235.05 823.68 236.05 C 811.51 237.71 811.28 237.90 816.36 242.01 L 820.66 245.50 L 833.45 245.36 L 846.24 245.23 L 849.82 241.65 Z M 819.00 235.06 C 821.47 234.50 828.00 234.05 833.50 234.05 C 842.81 234.05 846.71 234.53 853.00 236.46 C 854.71 236.98 855.19 236.90 854.50 236.19 C 852.67 234.30 841.31 232.00 833.86 232.01 C 826.48 232.03 815.19 234.13 812.13 236.06 C 810.74 236.94 810.80 237.02 812.50 236.58 C 813.60 236.30 816.53 235.62 819.00 235.06 Z M 105.78 282.28 C 102.30 278.64 101.00 274.98 101.00 268.90 C 101.00 263.30 103.73 257.00 107.21 254.57 C 110.05 252.58 131.13 252.35 135.00 254.27 C 136.38 254.95 138.54 257.53 139.81 260.00 C 143.22 266.62 142.59 275.47 138.35 280.71 L 135.28 284.50 L 121.85 284.78 L 108.43 285.05 L 105.78 282.28 Z M 134.65 281.53 C 137.54 279.51 140.00 273.94 140.00 269.41 C 140.00 264.44 136.62 257.60 133.44 256.15 C 129.63 254.42 110.95 254.65 108.35 256.47 C 105.28 258.62 103.00 264.15 103.00 269.47 C 103.00 274.46 104.03 277.16 107.30 280.75 C 109.20 282.84 110.19 283.00 120.95 283.00 C 129.53 283.00 133.10 282.62 134.65 281.53 Z M 817.75 282.25 C 812.65 276.91 811.49 267.93 814.91 260.38 C 817.91 253.78 819.78 253.00 832.66 253.00 C 838.82 253.00 844.99 253.43 846.36 253.95 C 850.44 255.50 854.00 262.70 854.00 269.40 C 854.00 275.65 853.10 278.06 849.19 282.25 C 846.64 284.98 846.53 285.00 833.50 285.00 C 820.48 285.00 820.35 284.98 817.75 282.25 Z M 847.87 280.90 C 850.85 278.13 852.00 274.87 852.00 269.18 C 852.00 263.54 849.41 257.98 846.00 256.28 C 842.76 254.66 824.97 254.60 821.47 256.20 C 814.14 259.53 812.84 273.92 819.24 280.75 C 821.20 282.84 822.19 283.00 833.49 283.00 C 844.43 283.00 845.84 282.79 847.87 280.90 Z" stroke-linecap="round"></path>
</g>
</g>
</g>

  </svg>